<svg id="Layer_1" data-name="Layer 1" xmlns="http://www.w3.org/2000/svg" viewBox="0 0 500 110"><defs><style>.cls-1{fill:#fff;}</style></defs><path d="M99.36,65.63l.29,0c.61-.08,1.25-.15,1.94-.2s1.29-.1,1.93-.11,1.31,0,1.69,0a16.11,16.11,0,0,1,1.84,0,21.12,21.12,0,0,0,2.51,0l4.1-.17a5.54,5.54,0,0,0,4.45-2.55h0a6.56,6.56,0,0,0,1.16-4,14.11,14.11,0,0,0-.22-1.86,4.23,4.23,0,0,1-.1-.93,7.08,7.08,0,0,0,.16-1.9,5.27,5.27,0,0,0-2.78-4.76,7.41,7.41,0,0,0-3.42-.8,5.49,5.49,0,0,0,.9-.75,6.51,6.51,0,0,0,1.61-3.11,11.07,11.07,0,0,0,.23-2.75c0-.61-.05-1.17-.05-1.73a6,6,0,0,0,0-.87,5.56,5.56,0,0,0-2-4.32,4.57,4.57,0,0,0,.61-.45,6,6,0,0,0,2-5.18c0-.24-.06-.75-.16-1.54s-.18-1.37-.3-2.09a19.25,19.25,0,0,0-.51-2.27,4.85,4.85,0,0,0-1.77-2.82,3,3,0,0,0-.48-.28,7.19,7.19,0,0,0-2.23-.66,10.93,10.93,0,0,0-1.93-.06h-.36a5.11,5.11,0,0,0-1.16.19l-2.75.46-.19,0-.47-.06a11.13,11.13,0,0,0-1.53-.05c-2.38.11-4.78.27-7.07.48l-1.67.13-.13,0c-.73-.11-1.47-.21-2.22-.29a21.48,21.48,0,0,0-3.22-.11l-1.72.08a3.2,3.2,0,0,0-1.14.25L84.3,21a12.26,12.26,0,0,0-1.36.67A6.64,6.64,0,0,0,81.26,23a4.73,4.73,0,0,0-1,1.91,5.35,5.35,0,0,0-1.55-2.54l0,0a8.3,8.3,0,0,0-2.9-1.58,3.51,3.51,0,0,0-1.61-.12c-1,.17-2,.29-2.92.38s-2,.15-3,.2a6.69,6.69,0,0,0-5,2.07,6.71,6.71,0,0,0-1.53,4.94,21.15,21.15,0,0,0,.71,4.54,22.15,22.15,0,0,1,.52,2.3,12.64,12.64,0,0,0-1.5,0,15,15,0,0,0-3.73.66,1.41,1.41,0,0,1-.22.06c0-.15,0-.3,0-.45a22,22,0,0,0-.26-2.55A13.32,13.32,0,0,1,57.05,31a2,2,0,0,1,.06-.61,8.67,8.67,0,0,0,.3-2.67,5.69,5.69,0,0,0-1.62-4,6.31,6.31,0,0,0-3-1.63,10.15,10.15,0,0,0-2.69-.23L48.38,22c-1,.05-1.78.05-2.54.06a8.38,8.38,0,0,0-3.28.61A5.33,5.33,0,0,0,40,25a4.78,4.78,0,0,0-1.44-1.42,5.65,5.65,0,0,0-3-.85c-.57,0-1.28,0-2.1,0-1.26.05-2.49.15-3.71.28s-2.15.2-3.25.25a9.81,9.81,0,0,1-1.77-.09,17.39,17.39,0,0,0-3-.17,16.07,16.07,0,0,0-2.05.23l-1.38.24a8.27,8.27,0,0,1-1.16,0l-2-.09-2-.16-1.67-.16a3.31,3.31,0,0,0-1.46.18c-1,.33-1.74.64-2.35.9A6.84,6.84,0,0,0,5,26a6.22,6.22,0,0,0-1.4,3.16,17.1,17.1,0,0,0-.11,3.09l.11,2.32a6,6,0,0,0,1.28,3.57,6.55,6.55,0,0,0,2.48,1.9,8.72,8.72,0,0,0,2.68.72,17.69,17.69,0,0,0,2.17.06,10.35,10.35,0,0,0,1.3-.14c0,.59-.07,1.15-.09,1.69a9.37,9.37,0,0,0,.13,2.46c.09.48.19,1,.3,1.52a4.84,4.84,0,0,1,.12.9,2.66,2.66,0,0,1-.07.72,7.18,7.18,0,0,0-.1,2.86c.1.61.2,1.24.32,1.93a10.43,10.43,0,0,1,.16,1.43,3.21,3.21,0,0,1-.07.73A9.2,9.2,0,0,0,14,57.45,12.74,12.74,0,0,0,14.17,59c.05.32.1.62.14.9,0,.44,0,.87,0,1.29,0,.62,0,1.23,0,1.81a6.75,6.75,0,0,0,1.76,4.33,6,6,0,0,0,4.56,2H21A25,25,0,0,0,24,69a18.5,18.5,0,0,1,2.23-.22,3.41,3.41,0,0,0,2-.78,7.16,7.16,0,0,0,2.91-2,7.05,7.05,0,0,0,1.48-5A11.67,11.67,0,0,0,32.37,59l-.32-1.56c-.09-.46-.17-.9-.23-1.33a4.9,4.9,0,0,1-.06-.51c0-.49.09-1,.14-1.52A12.73,12.73,0,0,0,32,52c0-.49-.05-1.27-.08-2.37s-.09-2.35-.16-3.63-.16-2.47-.27-3.6a17.3,17.3,0,0,0-.31-2.2l.26-2c.35,0,.7.08,1.06.14a18.71,18.71,0,0,0,3.87.26,3.44,3.44,0,0,0,2.24-1,14.09,14.09,0,0,0,1.08-1.17q.12,3,.15,6.12c0,2.62.1,5.22.22,7.82,0,.65,0,1.31,0,2,0,.86,0,1.72,0,2.6A10.7,10.7,0,0,0,40.36,57a3.31,3.31,0,0,1,.1.66,1.1,1.1,0,0,1,0,.32,7.94,7.94,0,0,0-.22,2.23c0,.33.05.76.12,1.3s.14,1.05.25,1.59a8.56,8.56,0,0,0,.62,2A4.54,4.54,0,0,0,44,67.68a11.22,11.22,0,0,0,2.1.46c.65.09,1.34.15,2.06.18s1.32,0,2,0l1.67,0c3.27-.14,4.92-1.68,5.71-2.94a8.59,8.59,0,0,0,1.25-5.18A23.75,23.75,0,0,0,58,55.41a18.67,18.67,0,0,1-.49-3.51c0-.13,0-.24,0-.34a6.65,6.65,0,0,1,.76,0c1,.06,2.07.07,3.25,0l2.09-.09c0,1,0,1.89,0,2.84-.06,2.27,0,4.62.07,6.94a5.87,5.87,0,0,0,.6,2.14,7.15,7.15,0,0,0,.83,1.44,5,5,0,0,0,2.62,1.76,13.93,13.93,0,0,0,1.78.37,17.46,17.46,0,0,0,3,.1A8.91,8.91,0,0,0,73.49,67a6.53,6.53,0,0,0,1.08-.29,3.41,3.41,0,0,1,.74-.06c.71,0,1.37,0,2,0a3.38,3.38,0,0,0,2.35-1.07c.23-.24.55-.61.93-1.08a5.27,5.27,0,0,0,1.19-2.34,8.27,8.27,0,0,0,1.38,2.37,7.3,7.3,0,0,0,6.32,2.43A20.23,20.23,0,0,0,92,66.65c.83-.13,1.62-.28,2.39-.46A20.58,20.58,0,0,1,98,66a3.38,3.38,0,0,0,1.39-.37"/><path d="M368.58,38Zm-177-18.55h0v0Zm238.4,4a.81.81,0,0,1,0-.16l-.05-1c0-.45,0-.89-.09-1.34l1,0a15.29,15.29,0,0,1,2.72.08,4.64,4.64,0,0,1,1.71.53.51.51,0,0,1,.23.25,1.2,1.2,0,0,1-.07.31l-.32,0c-.55.07-1.08.15-1.6.24a14,14,0,0,0-3.09.93,3,3,0,0,1-.39.14M370,48.8a5.69,5.69,0,0,0,1.24,3.43,6,6,0,0,0,2.4,1.78,8.27,8.27,0,0,0,2.48.59,17.84,17.84,0,0,0,1.92,0,7.42,7.42,0,0,0,1.74-.31c.4,0,.78,0,1.16,0s1,0,1.58,0a7.4,7.4,0,0,0,3.74-1,6.1,6.1,0,0,0,2.28-2.48,8.16,8.16,0,0,0,.77-2.48,7.67,7.67,0,0,1,.23-1.08s0,0,0,0c.25,0,.58-.07,1-.1.94-.08,1.92-.13,2.92-.18l2.93-.1a8.93,8.93,0,0,0,1.43,2.88,7.52,7.52,0,0,0,3,2.32,8.69,8.69,0,0,0,4,.68,5.21,5.21,0,0,0,.69-.1c.11,0,.29-.05.54-.09h0c.37-.06.77-.11,1.18-.14.57,0,1.1-.09,1.61-.15l.68-.07a3.35,3.35,0,0,0,1.78-.59,6.12,6.12,0,0,1,.6-.34,11.53,11.53,0,0,0,1.59-1,8.44,8.44,0,0,0,.78-.68A5.9,5.9,0,0,0,416,51.33a6.85,6.85,0,0,0,3.09,1.11,17.25,17.25,0,0,0,2.84.06,24.22,24.22,0,0,0,3.08-.18,15,15,0,0,0,1.55-.37,9.37,9.37,0,0,0,1.94-.87l.75-.42a4.69,4.69,0,0,0,1.51-1.38,5,5,0,0,0,.71-1.62,6.1,6.1,0,0,0,.13-1.71,12.27,12.27,0,0,0-.27-2.05,6.16,6.16,0,0,1-.11-.89,3.85,3.85,0,0,1,0-.58c0-.43,0-.84,0-1.25a15,15,0,0,0-.26-2.21,5.93,5.93,0,0,0,.53.81,1.22,1.22,0,0,1,.13.19c.07.22.16.46.25.7s.2.49.3.71a3.57,3.57,0,0,0,.55,1c.44.56.84,1.12,1.21,1.68A18.14,18.14,0,0,1,435,45.84l.11.24c.13.3.27.62.41.89a11.09,11.09,0,0,0,.58,1.09,4.22,4.22,0,0,0,1.8,1.74,9.75,9.75,0,0,0,3.81,1,27.88,27.88,0,0,0,3,0l1.17-.1c.5,0,1.09,0,1.79-.1a13.4,13.4,0,0,0,2.52-.41A7.19,7.19,0,0,0,453,48.71a5.26,5.26,0,0,0,1.75-4.31,6.66,6.66,0,0,0-.81-2.75,22.33,22.33,0,0,0-1.18-2c-.41-.62-.83-1.22-1.25-1.8s-.59-.84-.88-1.29l-1.73-2.47c-.29-.41-.62-.82-1-1.24a14,14,0,0,0,4-4.55,13.12,13.12,0,0,0,1.41-6.87,21.73,21.73,0,0,0-.53-3.92c.6.58,1.16,1.18,1.68,1.79a3.89,3.89,0,0,1,.57.86,11.18,11.18,0,0,0,1.46,2.14c.52.61,1,1.2,1.42,1.76s.9,1.22,1.43,2a15.7,15.7,0,0,0,1.14,1.3l1.26,1.33c.37.39.7.77,1,1.12,0,.27,0,.55.06.82l.09,1.88a12.89,12.89,0,0,1,0,1.39c-.05.73-.06,1.43,0,2.12a15.08,15.08,0,0,0,.27,2.1,5.75,5.75,0,0,1,.13.94,7.67,7.67,0,0,1-.08,1.43,15.27,15.27,0,0,0-.15,2.68,6.74,6.74,0,0,0,1.31,3.92,6.47,6.47,0,0,0,2.86,2.11,9.69,9.69,0,0,0,2.88.58c.8,0,1.59,0,2.38,0l2.07-.12a10.59,10.59,0,0,0,2.95-.61,7,7,0,0,0,2.84-1.92,5.86,5.86,0,0,0,1.42-4.33,7.91,7.91,0,0,0-.57-2.63c0-.72,0-1.43,0-2.13s0-1.41-.07-2.14a8.24,8.24,0,0,0-.42-2.2.49.49,0,0,1,0-.21q0-.19,0-.93c0-.57,0-1.18,0-1.79l.06-1.68c.23-.28.45-.56.69-.83a22,22,0,0,0,1.5-2,20.56,20.56,0,0,0,1.87-3.2,14.5,14.5,0,0,1,1.31-2.22c.95-1.38,1.93-2.72,2.92-4s2-2.65,3.08-4a10.33,10.33,0,0,0,.67-1,4.76,4.76,0,0,0,.73-2.79,4.71,4.71,0,0,0-2.25-3.78A6.6,6.6,0,0,0,489,4.36a9.7,9.7,0,0,0-1.69-.26C486.58,4,485.82,4,485,4c-1.66-.07-3.46,0-4,0a8.37,8.37,0,0,0-3.56.91,9,9,0,0,0-2.62,2,10.58,10.58,0,0,0-1.72,2.6,15.24,15.24,0,0,0-.73,1.88l-.15.18a6.89,6.89,0,0,0-1,1.44c-.3-.47-.61-.94-.93-1.42q-1-1.47-1.89-2.7a26.06,26.06,0,0,0-1.89-2.26,6.18,6.18,0,0,0-2.77-1.87,3.58,3.58,0,0,0-.45-.09c-.2,0-.67-.09-1.41-.14s-1.4-.11-2.2-.15l-2.08-.08c-.77,0-1.27,0-1.51,0a3.64,3.64,0,0,0-.93.17,10.39,10.39,0,0,0-2.17.27,6.61,6.61,0,0,0-2.87,1.44,5.05,5.05,0,0,0-1.75,3.63l-.53-.44a18.66,18.66,0,0,0-2-1.28A19.68,19.68,0,0,0,441,6,9.76,9.76,0,0,0,438,5.71a9.16,9.16,0,0,0-1.79.25,3.72,3.72,0,0,1-.57.08,8.48,8.48,0,0,1-1.43,0,16.12,16.12,0,0,0-2.51-.09,11.62,11.62,0,0,0-2.25.32,5.5,5.5,0,0,1-.88.13,22.73,22.73,0,0,1-2.61,0c-1.05-.06-2.08-.09-3.32-.11l-2.78.12-1.24,0a6.33,6.33,0,0,1-.82-.06,5.14,5.14,0,0,0-1.39-.13,4.46,4.46,0,0,0-4.09,2.73,6.51,6.51,0,0,0-.45,2.7,8.71,8.71,0,0,0,.26,1.71,2.89,2.89,0,0,1,0,.29,2.21,2.21,0,0,1-.08.56A6.75,6.75,0,0,0,412,17c.1.63.23,1.3.39,2a6.41,6.41,0,0,1,.18,1.1,6.63,6.63,0,0,0-.26,2.17,9.09,9.09,0,0,0,.39,2.25,1.73,1.73,0,0,1,.08.49,5,5,0,0,1,0,.67c0,.43-.07.85-.09,1.29a10.31,10.31,0,0,0,.08,1.84c0,.34.07.68.09,1.05.06,1.57.08,3.14,0,4.69,0,1.19,0,2.41,0,3.65-.35-.61-.63-1.06-.89-1.55-.1-.32-.2-.65-.28-1l-.31-1.17a9.31,9.31,0,0,0-.65-1.79A10.79,10.79,0,0,0,409.63,31c-.06-.08-.11-.15-.11-.12-.11-.32-.2-.64-.3-.94s-.23-.78-.35-1.15A12.79,12.79,0,0,0,408,26.8c-.33-.66-.71-1.35-1.12-2.08s-.79-1.36-1.15-2c-.24-.4-.46-.74-.65-1a28.45,28.45,0,0,0-1.36-4.58c-.53-1.37-1-2.81-1.5-4.33a6.89,6.89,0,0,0-2.52-3.48,11.57,11.57,0,0,0-3.09-1.64,15.1,15.1,0,0,0-3.25-.78,16,16,0,0,0-2.83-.15,9.85,9.85,0,0,0-1.89.26c-.41.09-1,.19-1.55.29a7.23,7.23,0,0,0-3.33,1.31,8.05,8.05,0,0,0-2,2.23,8.83,8.83,0,0,0-1.11,2.67c-.11.48-.21,1-.29,1.43a17.38,17.38,0,0,0-1,2.14,13.37,13.37,0,0,0-.68,2.34,7.08,7.08,0,0,0-.54,1.15,13.33,13.33,0,0,0-.8,3.33,7.21,7.21,0,0,1-.14.81,1.77,1.77,0,0,1-.21.47,10.17,10.17,0,0,0-1.08,2.36,6.2,6.2,0,0,0-.22,2.27c-.34.85-.68,1.69-1,2.52l-1,2.49a14.45,14.45,0,0,0-.8,3c-.12.81-.25,1.57-.34,2.06a7.07,7.07,0,0,0-.19,1.36,7.89,7.89,0,0,1-.4.91c-.26.51-.5,1-.74,1.53l.12-.4c.14-.49.26-1,.38-1.55s.19-1,.27-1.48a9.44,9.44,0,0,0,.13-1.66,8.58,8.58,0,0,0-.2-1.4l0-.16a5.38,5.38,0,0,1,0-.8,15.51,15.51,0,0,0,0-1.68,18.24,18.24,0,0,0-.49-3.33,6.7,6.7,0,0,1-.21-1.74l.09-2.57c0-1,0-1.9,0-2.84a11,11,0,0,0-.22-1.77,2.41,2.41,0,0,1,0-.81,7.31,7.31,0,0,0,.39-2.67,16.75,16.75,0,0,0-.22-2,7.11,7.11,0,0,1-.12-1.15c0-.14,0-.27,0-.4a7.73,7.73,0,0,0,.19-2,5.13,5.13,0,0,0-2.05-3.94,7.63,7.63,0,0,0-2.74-1.25A12,12,0,0,0,364,7.74c-.72,0-1.34,0-1.85,0a3.66,3.66,0,0,0-1.08.23,7.92,7.92,0,0,1-1.87.53,8.87,8.87,0,0,0-3,.79,5.45,5.45,0,0,0-2.81,3.26,12.15,12.15,0,0,0-.4,4.3c0,.92.13,1.83.24,2.72.09.7.16,1.44.19,2.2a8.33,8.33,0,0,1-.05,1.32,3.26,3.26,0,0,0,0,.54,4.79,4.79,0,0,0,.33,1.45c0,.16.08.32.12.46,0,.58,0,1.17,0,1.76,0,.87,0,1.72,0,2.54a8.34,8.34,0,0,0,.29,1.86c.09.34.17.67.22.88a5,5,0,0,1,.1.81l0,1.28a17.31,17.31,0,0,1,0,2.37,5.58,5.58,0,0,1-.36,1.72,1.63,1.63,0,0,1-.47.67,1.7,1.7,0,0,1-.68.12,2.82,2.82,0,0,1-.8,0,3.07,3.07,0,0,1-.72-.38,4.22,4.22,0,0,1-.75-.72l-.76-.9c0-.13-.05-.26-.07-.4a1.08,1.08,0,0,1,0-.29,3.41,3.41,0,0,0-.21-1.67,5.3,5.3,0,0,1-.27-1,9.64,9.64,0,0,1-.15-1.25,8.85,8.85,0,0,1,.08-1.69,17.46,17.46,0,0,0,.12-2.9c0-.87-.1-1.73-.17-2.57s-.11-1.52-.15-2.31l-.09-2a15.82,15.82,0,0,1,0-1.69,12.64,12.64,0,0,1,.18-1.6,12.34,12.34,0,0,0,.19-2.76,7,7,0,0,0-1-3.52,5.4,5.4,0,0,0-2.82-2.23,7.78,7.78,0,0,0-2.75-.35l-1.8.08c-.53,0-1.1,0-1.76,0a15.62,15.62,0,0,0-2.65.21,8.55,8.55,0,0,0-3,1.08,6,6,0,0,0-1.75,1.57A4.89,4.89,0,0,0,330.47,11a5.78,5.78,0,0,0-3-.84q-.84,0-2.1,0c-1.26.06-2.5.15-3.71.28-1.05.12-2.14.2-3.25.25a9.14,9.14,0,0,1-1.77-.1,17.52,17.52,0,0,0-3-.16,17.1,17.1,0,0,0-2,.22l-1.44.25a6.61,6.61,0,0,1-1.13,0l-2-.09-2.19-.17-1.52-.14a3.54,3.54,0,0,0-1.48.16c-.95.34-1.74.64-2.37.91A7.18,7.18,0,0,0,297,13.44a6.18,6.18,0,0,0-1.4,3.16c0,.22-.06.44-.08.69l-.09-.09c-.32-.37-.64-.71-1.07-1.14a15.34,15.34,0,0,0-4.15-2.74,24,24,0,0,0-4.4-1.49,29,29,0,0,0-4.52-.67,38.41,38.41,0,0,0-4.1-.07,6.6,6.6,0,0,0-1.37.2c-.42.09-.87.2-1.38.33l-1.29.34a5.51,5.51,0,0,0-1.31.45,32.1,32.1,0,0,0-3.23,1.74,22.16,22.16,0,0,0-3.22,2.29,17.4,17.4,0,0,0-2.5,2.72,26.36,26.36,0,0,0-2,3.15,21.83,21.83,0,0,0-1.57,3.54l0,.11-.3-6.8A7.24,7.24,0,0,0,257.4,15a7.15,7.15,0,0,0-4.15-2.24,3.45,3.45,0,0,0-2.49.44l-.66.14c-.32.06-.63.11-1,.15a6.72,6.72,0,0,1-.79.08,21.15,21.15,0,0,0-3.09.49,5.84,5.84,0,0,0-3.19,2,6,6,0,0,0-1.23,3.39c0,.72,0,1.68,0,2.89,0,.57.06,1.14.1,1.72q-1.14-1.82-2.49-3.65a1.88,1.88,0,0,1-.16-.29l-.44-1a14.32,14.32,0,0,0-.65-1.3,7.19,7.19,0,0,0-1.4-1.73A6.12,6.12,0,0,0,233,14.7a19.49,19.49,0,0,0-2.26-.33c-.73-.06-1.44-.1-2.12-.1H227l-1.78.1a19.53,19.53,0,0,0-2.79.4,10,10,0,0,0-3,1.1,4.83,4.83,0,0,0-2.52,4.45,4.69,4.69,0,0,0,.49,1.9l.18.4a1.55,1.55,0,0,1,0,.21c.05.37.09.76.11,1.21s0,1,0,1.45,0,1,0,1.33a7.46,7.46,0,0,0,.18,1.41l.12.57c.1,1.08.15,2.14.15,3.2q0,1.92.09,3.81a15.54,15.54,0,0,0,.39,2.84A8.15,8.15,0,0,1,219,40.2a26.19,26.19,0,0,1,0,2.66c-.07,1.08-.07,2.19,0,3.33,0,.68.07,1.36.11,2-.3-.55-.6-1.07-.89-1.57-.39-.67-.68-1.15-1-1.68-.1-.32-.19-.64-.27-.95l-.31-1.2A10.32,10.32,0,0,0,216,41a12.47,12.47,0,0,0-1.13-1.7l-.12-.15c-.11-.3-.21-.6-.3-.92l-.35-1.15a15.35,15.35,0,0,0-.86-2c-.33-.65-.7-1.33-1.12-2s-.78-1.35-1.15-2l-.64-1a28.65,28.65,0,0,0-1.36-4.58c-.53-1.36-1-2.79-1.5-4.35a7,7,0,0,0-2.53-3.46,11.68,11.68,0,0,0-3.09-1.64,15.1,15.1,0,0,0-3.25-.78,16.9,16.9,0,0,0-2.83-.15,11.65,11.65,0,0,0-1.87.26c-.41.09-1,.2-1.55.3A7.11,7.11,0,0,0,189,17a8.16,8.16,0,0,0-2.06,2.24,8.76,8.76,0,0,0-1.1,2.68c-.12.47-.21.95-.29,1.42a17.83,17.83,0,0,0-1,2.12,12.76,12.76,0,0,0-.68,2.36,8.42,8.42,0,0,0-.56,1.17,16.28,16.28,0,0,0-.49,1.6,14.57,14.57,0,0,0-.29,1.69c0,.3-.08.56-.14.83a1.46,1.46,0,0,1-.21.46,9.8,9.8,0,0,0-1.07,2.35,6,6,0,0,0-.23,2.28c-.34.85-.68,1.7-1,2.52l-1,2.5a14.45,14.45,0,0,0-.8,3c0,.27-.08.53-.13.78a16.35,16.35,0,0,0,0-2c0-.55-.07-1.08-.13-1.62s-.14-1-.25-1.61a9.06,9.06,0,0,0-1.39-3.22A14,14,0,0,0,174,36.1a17.37,17.37,0,0,0-2.51-1.92l-.15-.1c.43-.3.85-.63,1.27-1a16.25,16.25,0,0,0,2.28-2.35,5.83,5.83,0,0,0,1.47-3.93,7.09,7.09,0,0,0-1.52-4.11,10.2,10.2,0,0,0-2.58-2.31A16.27,16.27,0,0,0,169.57,19c-.82-.33-1.57-.62-2.24-.86a6.22,6.22,0,0,1-1-.48L165.2,17a3.41,3.41,0,0,0-1.24-.44c-1.37-.21-2.77-.4-4.2-.6a28.64,28.64,0,0,0-4.79-.21,9.93,9.93,0,0,0-2.05.34c-.63.16-1.28.36-2,.61l-1.73.63-1.12.39a1.19,1.19,0,0,1-.32.05,5.25,5.25,0,0,0-2.32.74,13.11,13.11,0,0,0-2,1.63c-.72.66-1.45,1.4-2.19,2.2s-1.41,1.54-2,2.24a6.52,6.52,0,0,0-1.63,2.85,24.71,24.71,0,0,0-.69,6.92,17.93,17.93,0,0,0,.79,4.48,10.34,10.34,0,0,0,3,4.65l.64.57c.34.3.71.62,1.11.94l.13.1c-.5.31-1,.66-1.55,1-.86.59-1.66,1.16-2.41,1.72a8.57,8.57,0,0,0-2.15,2.08A8.47,8.47,0,0,0,136,51a4.87,4.87,0,0,0-.34,2.09,4.72,4.72,0,0,0,.84,2.45,10.42,10.42,0,0,0,.88,1.16c.34.39.69.74,1,1l.68.6c.47.39.94.82,1.4,1.28a14.53,14.53,0,0,0,1.91,1.67A9.16,9.16,0,0,0,146.1,63a24.58,24.58,0,0,0,3.7.64c1.21.13,2.41.21,3.59.25s2,.06,2.71.1h.28a2.23,2.23,0,0,0,.7-.1,3.31,3.31,0,0,1,.45-.07c.33,0,.69-.07,1.09-.09l2.37-.1a2.75,2.75,0,0,0,1.52-.49l.25,0a3.46,3.46,0,0,0,1.5-.43,7.76,7.76,0,0,0,1.92-.36,15.48,15.48,0,0,0,5.21-2.7,17.08,17.08,0,0,0,3.74-4.09l.18-.29a9.29,9.29,0,0,0-.12,1.9,5.75,5.75,0,0,0,1.23,3.42,6.25,6.25,0,0,0,2.42,1.81,8.2,8.2,0,0,0,2.45.57,13.72,13.72,0,0,0,1.9,0,7.27,7.27,0,0,0,1.79-.3c.4,0,.77,0,1.17,0s1,0,1.55,0a7.54,7.54,0,0,0,3.76-1,6.11,6.11,0,0,0,2.26-2.46,8,8,0,0,0,.77-2.47,8.81,8.81,0,0,1,.24-1.11,0,0,0,0,0,0,0c.24,0,.58-.07,1-.1.93-.07,1.9-.13,2.9-.17s2-.08,2.94-.1A8.85,8.85,0,0,0,203,58.08,7.57,7.57,0,0,0,206,60.4a9.15,9.15,0,0,0,4,.68,4,4,0,0,0,.69-.11l.53-.08h0c.36-.06.76-.1,1.18-.13s1.1-.09,1.61-.15c.32,0,.55-.07.68-.07a3.48,3.48,0,0,0,1.76-.58,5.53,5.53,0,0,1,.65-.37,11,11,0,0,0,1.57-1,7.76,7.76,0,0,0,1.36-1.32,4.67,4.67,0,0,0,.87,1.62,5.37,5.37,0,0,0,2.7,1.76,11.32,11.32,0,0,0,2.1.42,17,17,0,0,0,2,.11l1.38,0a3.5,3.5,0,0,0,1.58-.47,12.57,12.57,0,0,0,2.19-.3A6,6,0,0,0,236,58.52a6.27,6.27,0,0,0,1.35-4.68c-.05-1.18-.16-2.39-.32-3.57l-.23-1.67.71,1.07a4,4,0,0,1,.57,1.35,3.42,3.42,0,0,0,.79,1.52,15,15,0,0,1,1.52,2,17,17,0,0,0,2,2.49,9.29,9.29,0,0,0,3.11,2.12,10.49,10.49,0,0,0,4.55.69,3.78,3.78,0,0,0,1-.2l.12,0c.32,0,.65-.08,1-.1s.72-.06,1-.07l.93,0a3.63,3.63,0,0,0,1.32-.34c.5-.24,1-.49,1.55-.72a5.32,5.32,0,0,0,3-3.47,5.9,5.9,0,0,0,.15-2l-.07-1.67c0-.68-.08-1.33-.14-1.94s-.06-.78-.07-1c0-.61,0-1.21,0-1.8,0-.26,0-.53,0-.79.13.29.28.57.44.87l1,1.78a9.22,9.22,0,0,1,.56,1.22,3.46,3.46,0,0,0,.83,1.27l2.63,2.54A18.24,18.24,0,0,0,273.33,58a28.25,28.25,0,0,0,8.65,1,12.38,12.38,0,0,0,3.14-.6,4.53,4.53,0,0,1,1.48-.2,3.4,3.4,0,0,0,1.51-.3,22,22,0,0,0,3.42-2.09h0a34.49,34.49,0,0,0,3.79-3.16,29.14,29.14,0,0,0,3.24-3.66,8,8,0,0,0,1.79-5A5.73,5.73,0,0,0,298.42,40,13.29,13.29,0,0,0,295.76,38a16.61,16.61,0,0,0-2.92-1.26,9.24,9.24,0,0,0-3.08-.49,5.68,5.68,0,0,0-4.39,2.3c-.45.61-.93,1.29-1.45,2a5.69,5.69,0,0,1-1.17,1.19,3.08,3.08,0,0,1-1.35.27,5.2,5.2,0,0,1-2.61-.5,18.26,18.26,0,0,1-2-3.14,8.52,8.52,0,0,1-.95-3.55,11.78,11.78,0,0,1,0-1.55,10.59,10.59,0,0,1,.24-1.55,5.08,5.08,0,0,1,.45-1.16,1.25,1.25,0,0,1,.3-.4,6.09,6.09,0,0,1,.73-.48,13.68,13.68,0,0,0,1.49-1c.41-.27.83-.53,1.27-.78a.86.86,0,0,1,.3-.06,1.26,1.26,0,0,1,.27,0,3.37,3.37,0,0,1,.65.25c.31.15.6.32.88.49a4.83,4.83,0,0,1,.4.31c.19.2.39.43.59.67A14.19,14.19,0,0,0,284.66,31a7.41,7.41,0,0,0,1.85,1.36,6.08,6.08,0,0,0,3,.67,7.15,7.15,0,0,0,2.51-.58,8.6,8.6,0,0,0,1.72-1c.39-.29.78-.6,1.12-.9a4,4,0,0,1,.59-.42,4,4,0,0,0,1-.94,4.62,4.62,0,0,1,.31-.37c.32-.36.63-.75.94-1.16s.37-.51.54-.76a6.93,6.93,0,0,0,1.1.62,8.56,8.56,0,0,0,2.69.72,15.64,15.64,0,0,0,2.14.06,11.28,11.28,0,0,0,1.33-.14c0,.59-.07,1.15-.1,1.7a9.29,9.29,0,0,0,.13,2.45c.09.48.2,1,.31,1.53a5.66,5.66,0,0,1,.12.87,2.86,2.86,0,0,1-.08.75,7.16,7.16,0,0,0-.09,2.86c.09.6.2,1.25.31,1.91a11.07,11.07,0,0,1,.17,1.43,3.43,3.43,0,0,1-.08.75A9.91,9.91,0,0,0,306,44.9a13.92,13.92,0,0,0,.18,1.58c.05.31.09.61.14.88,0,.43,0,.85,0,1.28,0,.62,0,1.23,0,1.81a6.77,6.77,0,0,0,1.77,4.34,6.11,6.11,0,0,0,4.86,2,28.18,28.18,0,0,0,3-.31,16.84,16.84,0,0,1,2.23-.22,3.26,3.26,0,0,0,1.83-.71,7.22,7.22,0,0,0,3.11-2.12,7.06,7.06,0,0,0,1.48-5,12.35,12.35,0,0,0-.26-1.95L324,44.89c-.1-.46-.18-.91-.24-1.36a3.42,3.42,0,0,1,0-.49c0-.49.08-1,.15-1.52a15.17,15.17,0,0,0,.07-2.12c0-.49-.05-1.27-.09-2.36s-.08-2.36-.16-3.63-.16-2.47-.26-3.6a17.69,17.69,0,0,0-.31-2.22l.25-2c.36,0,.71.08,1.06.14a18.05,18.05,0,0,0,3.88.26,3.46,3.46,0,0,0,2.23-1c.32-.31.66-.67,1-1.06,0,.56,0,1.12,0,1.67,0,1,0,1.95,0,2.93a17.85,17.85,0,0,0,.17,2c.06.44.1.88.12,1.34a15.7,15.7,0,0,1,0,1.94,21.15,21.15,0,0,0-.06,2.74c0,.09,0,.34.06.74s.08.72.14,1.1.13.83.21,1.23c.05.2.09.39.15.59.06.43.09.85.11,1.25l.08,1.88A3.55,3.55,0,0,0,333,45a25.34,25.34,0,0,0,1.54,2.28,17.63,17.63,0,0,0,2,2.2c.73.68,1.51,1.39,2.32,2.11A15,15,0,0,0,342,53.68a12.71,12.71,0,0,0,3.72,1.15,31.82,31.82,0,0,0,3.89.39c1.26.05,2.48.06,3.67.05s2.17-.05,3-.08a3.37,3.37,0,0,0,1.25-.3q1.24-.55,2.46-1l2.83-1.06a8,8,0,0,0,1.46-.8c.4-.28.82-.6,1.26-1s.71-.62,1-.9.63-.61.79-.78q.8-.81,1.71-1.86a11.13,11.13,0,0,0,1.44-2.09c-.07.19-.12.37-.18.56A8.94,8.94,0,0,0,370,48.8"/><path d="M334.54,90.89l-.4-3.39.43,3.39h0M276.79,79a1.16,1.16,0,0,1-.26.56,1.24,1.24,0,0,1-.59.29,5.21,5.21,0,0,1-.65.15l0-3.84c0-.66,0-1.32,0-2a9.36,9.36,0,0,1,1,.31,2.09,2.09,0,0,1,.3.14c.06.17.11.35.16.53.08.35.15.68.2,1a5.17,5.17,0,0,1,.07.69,7,7,0,0,1-.14,2.16M257.57,94.19l-.4-3.39.44,3.39h0M149.92,84.44a1.48,1.48,0,0,1-.26.57,1.45,1.45,0,0,1-.6.28,5.21,5.21,0,0,1-.65.15l0-3.84c0-.67,0-1.33,0-2a6.69,6.69,0,0,1,1,.31l.3.13a4.77,4.77,0,0,1,.15.54c.08.34.15.68.2,1a5.43,5.43,0,0,1,.08.69,7.33,7.33,0,0,1-.14,2.16M130.7,99.62l-.4-3.39.43,3.39h0m232.87-36.4a2.26,2.26,0,0,0,0-.27l0-.4a8.07,8.07,0,0,0-.32-2.1,4.47,4.47,0,0,0-1.9-2.56,5,5,0,0,0-2.56-.73c-.4,0-.89,0-1.45,0-.86,0-1.71.1-2.55.19-.68.07-1.37.13-2.07.15a5.46,5.46,0,0,1-1.06,0,13.09,13.09,0,0,0-2.14-.09,11.56,11.56,0,0,0-1.43.15c-.39.06-.77.12-.93.16a4.08,4.08,0,0,1-.61,0c-.41,0-.83,0-1.25-.07s-.89-.06-1.28-.11l-1.14-.12a3.68,3.68,0,0,0-1.48.17c-.67.23-1.23.44-1.64.62a6.41,6.41,0,0,0-1.15.64,6.49,6.49,0,0,0-2.51-1,3.36,3.36,0,0,0-2.29.34l-.22,0-.57.09-.27,0h-.26a16.42,16.42,0,0,0-2.2.37,5,5,0,0,0-2.71,1.66,4.9,4.9,0,0,0-1,2.07q-.18-.37-.39-.75A5.57,5.57,0,0,0,325,60.24a5.22,5.22,0,0,0-2.42-1.16,13.33,13.33,0,0,0-1.63-.23c-.51-.05-1-.07-1.49-.07s-.86,0-1.12,0-.67,0-1.2.06a14.27,14.27,0,0,0-2,.28,8,8,0,0,0-2.3.85,4.53,4.53,0,0,0-1.08.84,3.81,3.81,0,0,0-.71-.67,3.2,3.2,0,0,0-.51-.29,6.21,6.21,0,0,0-1.84-.53,8.51,8.51,0,0,0-1.32,0l-.37,0a4.83,4.83,0,0,0-.84.11l-1.78.24-.12,0-.27,0a9,9,0,0,0-1,0c-1.59.07-3.17.16-4.71.29l-1.11.07h0l-1.42-.14a16.39,16.39,0,0,0-2.22-.05l-.84.06-.29,0a3.36,3.36,0,0,0-1.13.24l-.67.28a9.78,9.78,0,0,0-1,.5,5.48,5.48,0,0,0-1.4,1.13,4.21,4.21,0,0,0-1.07,3l0,.55c-.36-.38-.75-.76-1.17-1.13l-1.58-1.38a3.76,3.76,0,0,0-1.14-.64c-.48-.16-.95-.32-1.4-.49s-1.11-.4-1.7-.58a16,16,0,0,0-1.91-.45,11,11,0,0,0-2.33-.14,11.16,11.16,0,0,0-2,.28,2.49,2.49,0,0,1-.71.07h-3.89c-1.25,0-2.49-.05-3.74-.12a3.33,3.33,0,0,0-2.08.54,8.93,8.93,0,0,0-1.31,1,6.07,6.07,0,0,0-3-1.44,3.44,3.44,0,0,0-2.28.33l-.22,0-.58.1-.52,0a14.68,14.68,0,0,0-2.21.35,5,5,0,0,0-2.72,1.68,4.89,4.89,0,0,0-1,2.06q-.18-.39-.39-.75a5.5,5.5,0,0,0-1.15-1.41,5.13,5.13,0,0,0-2.42-1.17,13.46,13.46,0,0,0-1.64-.24c-.51,0-1-.06-1.49-.07H241.4l-1.2.07a14.21,14.21,0,0,0-2,.28,7.77,7.77,0,0,0-2.29.85,4.7,4.7,0,0,0-1.08.83,4.15,4.15,0,0,0-.78-.71l-.45-.25a6,6,0,0,0-1.84-.52,7.39,7.39,0,0,0-1.32-.05h-.37a5.9,5.9,0,0,0-.83.11l-1.78.25h-.12l-.27,0c-.35,0-.7,0-1,0-1.59.07-3.17.17-4.72.29l-1.1.08h0l-1.41-.14a18.29,18.29,0,0,0-2.23-.06l-.8.06-.34,0a3.18,3.18,0,0,0-1.13.24l-.66.27a11.19,11.19,0,0,0-1.05.51,5.43,5.43,0,0,0-1.39,1.13,4.33,4.33,0,0,0-.66,1l-.38-.32a10,10,0,0,0-3.27-1.65,13,13,0,0,0-1.58-.39c-.54-.11-1.1-.21-1.67-.3s-1.22-.17-1.8-.22a14.39,14.39,0,0,0-1.62-.06,11.5,11.5,0,0,0-1.91.25,7,7,0,0,1-.86.11,6.07,6.07,0,0,1-.86,0,12.23,12.23,0,0,0-2-.09c-.63,0-1.25.07-1.87.13s-1,.08-1.55.1a9.81,9.81,0,0,1-1.08,0,11.08,11.08,0,0,0-2.08.08,3.61,3.61,0,0,0-1.06.32,5.58,5.58,0,0,0-2.15,1.83,3.44,3.44,0,0,0-.6-.53,4.31,4.31,0,0,0-.47-.26,5.82,5.82,0,0,0-1.82-.53,7.38,7.38,0,0,0-1.42,0h-.3a4.6,4.6,0,0,0-.83.11l-1.8.24-.09,0-.29,0a8.9,8.9,0,0,0-1,0c-1.59.07-3.17.17-4.71.29l-1.11.08h0c-.47-.05-.94-.11-1.4-.14a16.51,16.51,0,0,0-2.37-.05l-.66.05-.34,0a3.37,3.37,0,0,0-1.17.26l-.63.26a8.7,8.7,0,0,0-1,.5,5.43,5.43,0,0,0-1.41,1.14,4.17,4.17,0,0,0-1.06,3l0,.57A15.74,15.74,0,0,0,159,69.87c-.45-.41-1-.87-1.58-1.38a3.5,3.5,0,0,0-1.16-.65c-.47-.15-.93-.32-1.36-.48s-1.15-.41-1.72-.59a16.66,16.66,0,0,0-1.92-.45,10.55,10.55,0,0,0-2.33-.14,10.7,10.7,0,0,0-2,.28,2.82,2.82,0,0,1-.71.08h-3.9c-1.25,0-2.49-.05-3.73-.13a3.24,3.24,0,0,0-2.07.55,8.91,8.91,0,0,0-1.33,1,6.12,6.12,0,0,0-3-1.44,3.42,3.42,0,0,0-2.31.34l-.24,0-.57.08a3.42,3.42,0,0,1-.48,0,16.81,16.81,0,0,0-2.22.36,5,5,0,0,0-2.72,1.68,4.88,4.88,0,0,0-1,2.06l-.39-.74A5.48,5.48,0,0,0,121.18,69a5.18,5.18,0,0,0-2.4-1.15,13.52,13.52,0,0,0-1.66-.24c-.5,0-1-.06-1.48-.07s-.89,0-1.11,0l-1.21.07a13.07,13.07,0,0,0-2,.28,8.3,8.3,0,0,0-2.29.85,4.81,4.81,0,0,0-.66.45,5.11,5.11,0,0,0-1.52-.84A8.07,8.07,0,0,0,105,68a3.56,3.56,0,0,1-.62-.12,3.59,3.59,0,0,0-1.53-.08,10,10,0,0,1-1.06.15c-.38,0-.77.06-1.19.08a4.85,4.85,0,0,0-3.74,2,5.3,5.3,0,0,0-1,3.42c0,1.08.14,2.15.27,3.22.11.88.19,1.77.23,2.67,0,.42,0,.82,0,1.23s0,1,0,1.58.09,1.16.16,1.7a10,10,0,0,1,.1,1.1,6.18,6.18,0,0,1,0,1,14.14,14.14,0,0,0-.05,2A4.46,4.46,0,0,0,96.81,89l0,.14a8.38,8.38,0,0,0-.15,2.06,26.35,26.35,0,0,0,.25,2.69c.11.73.2,1.47.27,2.14v.3a3.8,3.8,0,0,0,.8,2.21,4.72,4.72,0,0,0,1.77,1.62,6.28,6.28,0,0,0,2.11.67,8.81,8.81,0,0,0,1.3.08h.61l.79,0a11.42,11.42,0,0,0,2.91-.47,5,5,0,0,0,2.35-1.54,4.76,4.76,0,0,0,2.24,1.37,8.43,8.43,0,0,0,1.59.33,12,12,0,0,0,1.47.08l1,0a3.41,3.41,0,0,0,1.3-.32,8.9,8.9,0,0,0,1.4-.22,5,5,0,0,0,2.64-1.55,4.8,4.8,0,0,0,1.17-2.73A11.42,11.42,0,0,0,124,97.56a7.07,7.07,0,0,0,2.45,1.67,8,8,0,0,0,3.52.53,3,3,0,0,0,.85-.15l.61-.06,1.22-.07a3.3,3.3,0,0,0,1.35-.32l1-.48a4.91,4.91,0,0,0,1.41-1,6.25,6.25,0,0,0,2.13,1.14,8.74,8.74,0,0,0,2.19.39c.6,0,1.14,0,1.56,0a20.48,20.48,0,0,0,4.57-.67,7.91,7.91,0,0,0,1.6-.08,19.19,19.19,0,0,0,2.31-.39,6.9,6.9,0,0,1,1.33-.17,7.88,7.88,0,0,0,1.94-.4c.56-.18,1.14-.39,1.73-.63s1.17-.5,1.69-.77a6.52,6.52,0,0,0,1.83-1.29l.66-.69c.33-.35.65-.72,1-1.12L161,93a6.76,6.76,0,0,0,1.52,3.38,6.17,6.17,0,0,0,5.09,2c.57,0,1.16-.09,1.78-.18s1.13-.19,1.67-.32a12.94,12.94,0,0,1,2.18-.09,3.42,3.42,0,0,0,1.26-.3c.37,0,.77-.09,1.22-.13s.8-.06,1.21-.06l1.15,0a7.92,7.92,0,0,1,1.09,0c.6,0,1.2,0,1.8,0l2.71-.12a4.78,4.78,0,0,0,3.16-1.35,3.9,3.9,0,0,0,.57.37,6.69,6.69,0,0,0,3.55.75c.62,0,1.24-.08,1.84-.15.45,0,.92-.09,1.39-.11a3.44,3.44,0,0,0,1.3-.31c.3-.14.59-.28.83-.41a3.34,3.34,0,0,0,1.82-1,4.55,4.55,0,0,0,1.16-2.35,10.48,10.48,0,0,0,.17-1.33c0-.4,0-.79,0-1.14s0-.69,0-.86c0-.36,0-.71-.07-1.06a14.21,14.21,0,0,0,2.51.1,9,9,0,0,0,2.81-.58,2.09,2.09,0,0,1,.71-.15,3.24,3.24,0,0,0,1.19-.28,9.1,9.1,0,0,0,1-.5l.63-.4a14.41,14.41,0,0,0,2.62-2.17h0a7.57,7.57,0,0,0,.2.93,8.11,8.11,0,0,1-.1,1.62,15.21,15.21,0,0,0-.17,3,7.07,7.07,0,0,0,1.62,4.4,6,6,0,0,0,5.11,2,15.67,15.67,0,0,0,1.75-.17c.59-.1,1.15-.2,1.68-.32a12.44,12.44,0,0,1,2.22-.1,3.69,3.69,0,0,0,1.22-.29h0c.37-.06.77-.1,1.18-.13s.81-.06,1.23-.07l1.13,0a7.88,7.88,0,0,1,1.09,0c.62,0,1.22,0,1.82,0l2.72-.12a4.8,4.8,0,0,0,3.21-1.4,4.69,4.69,0,0,0,2.09,1.25,9.3,9.3,0,0,0,1.62.33,11.59,11.59,0,0,0,1.47.07c.4,0,.72,0,1,0a3.39,3.39,0,0,0,1.26-.31,9.47,9.47,0,0,0,1.43-.22,5.19,5.19,0,0,0,2.62-1.55,4.79,4.79,0,0,0,1.16-2.73,11.7,11.7,0,0,0,1.4,1.74,7.27,7.27,0,0,0,2.43,1.65,8,8,0,0,0,3.53.54,3,3,0,0,0,.85-.15l.62-.06,1.21-.07a3.5,3.5,0,0,0,1.36-.34l1-.45a4.58,4.58,0,0,0,1.43-1,6.64,6.64,0,0,0,2.13,1.15,8.74,8.74,0,0,0,2.21.39c.59,0,1.1,0,1.56,0a20.26,20.26,0,0,0,4.53-.68,7.61,7.61,0,0,0,1.63-.07,19.91,19.91,0,0,0,2.31-.4,6.79,6.79,0,0,1,1.29-.16,8,8,0,0,0,2-.41,17.52,17.52,0,0,0,1.7-.62,17.13,17.13,0,0,0,1.71-.77,6.76,6.76,0,0,0,1.82-1.29l.65-.69c.34-.35.66-.72,1-1.12l.07-.09a6.77,6.77,0,0,0,1.51,3.36,6.07,6.07,0,0,0,5.11,2,16.48,16.48,0,0,0,1.77-.17c.58-.09,1.13-.2,1.68-.32a12.81,12.81,0,0,1,2.18-.1,3.5,3.5,0,0,0,1.24-.28h0l1.19-.13c.43,0,.84,0,1.23-.07l1.16,0c.37,0,.73,0,1.06,0,.62,0,1.22,0,1.82,0l2.7-.12a4.83,4.83,0,0,0,3.23-1.4,4.77,4.77,0,0,0,2.12,1.25,8.78,8.78,0,0,0,1.59.32,11.85,11.85,0,0,0,1.47.08l.92,0a3.48,3.48,0,0,0,1.35-.33,10.24,10.24,0,0,0,1.4-.21,5.16,5.16,0,0,0,2.62-1.54,4.84,4.84,0,0,0,1.18-2.74,12.07,12.07,0,0,0,1.4,1.75,7.5,7.5,0,0,0,2.43,1.64,8.09,8.09,0,0,0,3.51.54,2.91,2.91,0,0,0,.88-.16l.59,0,.68,0,.61,0a3.26,3.26,0,0,0,1.27-.32l1-.46a4.6,4.6,0,0,0,2.62-3,4.66,4.66,0,0,0,.17-1.8l-.05-1.08c0-.46-.05-.9-.08-1.29l0-.62c0-.39,0-.77,0-1.17s0-1,0-1.53a7.41,7.41,0,0,0-.22-1.55c0-.1-.05-.2-.08-.3a7.08,7.08,0,0,0,.08-1.48l-.08-1c0-.33,0-.66-.06-1a6.88,6.88,0,0,1,0-.9,13.44,13.44,0,0,0,.05-1.9v0a5.06,5.06,0,0,0,.68.1c.4,0,.8,0,1.18.06a7.13,7.13,0,0,0,.12,1.73l.21,1a1.72,1.72,0,0,1,0,.56,6.37,6.37,0,0,0,0,2.5l.19,1.09a4.52,4.52,0,0,1,.07,1,8,8,0,0,0-.19,2,10.59,10.59,0,0,0,.14,1.2l.07.47c0,.25,0,.48,0,.69,0,.45,0,.88,0,1.28A5.59,5.59,0,0,0,345,88.55a5.17,5.17,0,0,0,4.1,1.65,19,19,0,0,0,2.12-.21,12.46,12.46,0,0,1,1.37-.13,3.17,3.17,0,0,0,1.7-.6,5.84,5.84,0,0,0,2.39-1.66A5.75,5.75,0,0,0,358,83.51a8.87,8.87,0,0,0-.2-1.5l-.21-1c-.06-.27-.11-.54-.17-.86s.06-.63.1-1a10.43,10.43,0,0,0,0-1.58l0-1.52c0-.78-.06-1.59-.11-2.45s-.11-1.64-.18-2.4c-.05-.53-.11-1-.18-1.36a12.88,12.88,0,0,0,2.32.11,3.47,3.47,0,0,0,2.23-1,10.52,10.52,0,0,0,1.05-1.18,4.85,4.85,0,0,0,1.06-3.2l0-.63c0-.26,0-.52-.07-.76"/><path d="M480.66,77a3.35,3.35,0,0,0,.28,1.15,0,0,0,0,1,0,0,3.3,3.3,0,0,1-.29-1.18m-37.54-8c0,.28.07.5.08.7a7.71,7.71,0,0,1-.14,2.15,1.37,1.37,0,0,1-.26.56,1.46,1.46,0,0,1-.59.29,5.38,5.38,0,0,1-.66.15l0-3.84,0-2a7,7,0,0,1,1,.32l.3.13c.06.17.11.35.16.54s.15.67.2,1M495.92,76a17.77,17.77,0,0,0-.81-1.65c-.28-.5-.54-1-.79-1.39s-.48-.81-.55-.9-.1-.36-.16-.56l-.21-.8a7.66,7.66,0,0,0-.51-1.39,7.85,7.85,0,0,0-.84-1.27l-.11-.36c-.07-.25-.16-.52-.24-.78a9.7,9.7,0,0,0-.65-1.47c-.23-.45-.48-.92-.75-1.39l-.78-1.33-.34-.55a20.74,20.74,0,0,0-.91-3c-.35-.88-.66-1.79-1-2.79a5.84,5.84,0,0,0-2.08-2.86,9,9,0,0,0-2.36-1.24,10.86,10.86,0,0,0-2.38-.57,11.88,11.88,0,0,0-2.1-.11,7.88,7.88,0,0,0-1.44.2L476,52A5.84,5.84,0,0,0,473.28,53a6.68,6.68,0,0,0-1.67,1.8,7,7,0,0,0-.87,2.09c-.07.28-.13.56-.18.83a12.78,12.78,0,0,0-.63,1.36,8.87,8.87,0,0,0-.48,1.57,5.7,5.7,0,0,0-.34.75,9.79,9.79,0,0,0-.39,1.23,10,10,0,0,0-.22,1.28,1.67,1.67,0,0,1-.06.32,7.29,7.29,0,0,0-.84,1.85l-.06.22,0-.29a5.5,5.5,0,0,0,.1-1.33,9.64,9.64,0,0,0-.32-2.07,3.83,3.83,0,0,1-.1-.56,6.85,6.85,0,0,1,.1-1.33,13,13,0,0,0,.19-2.83,5.5,5.5,0,0,0-1.07-3.19A5,5,0,0,0,464.09,53a7.81,7.81,0,0,0-1.84-.39,3.19,3.19,0,0,1-.6-.12,3.38,3.38,0,0,0-1.55-.07,9.94,9.94,0,0,1-1.06.14c-.38,0-.77.07-1.19.08a4.87,4.87,0,0,0-3.74,2,5.36,5.36,0,0,0-1.06,3.43.19.19,0,0,1,0,.08,11.38,11.38,0,0,0-.88-.82c-.45-.42-1-.87-1.59-1.39a3.45,3.45,0,0,0-1.15-.65c-.48-.15-.94-.32-1.38-.49s-1.13-.4-1.69-.57a18.23,18.23,0,0,0-1.94-.46,10.91,10.91,0,0,0-4.32.14,2.57,2.57,0,0,1-.72.07c-1.31,0-2.6,0-3.89,0s-2.5-.06-3.74-.13a3.32,3.32,0,0,0-2.08.55,8.81,8.81,0,0,0-1.44,1.13,4.09,4.09,0,0,0-.39.44,3.47,3.47,0,0,0-.85-.81,4.25,4.25,0,0,0-.46-.27,5.91,5.91,0,0,0-1.85-.53,7.43,7.43,0,0,0-1.32,0H423a5,5,0,0,0-.85.11l-1.75.24-.14,0-.27,0a9,9,0,0,0-1,0c-1.59.07-3.16.17-4.71.29l-1.11.08h0l-1.42-.15a16.4,16.4,0,0,0-2.22,0,7.46,7.46,0,0,0-.84.06l-.29,0a3.62,3.62,0,0,0-1.13.24l-.66.27a9,9,0,0,0-1,.51,5.37,5.37,0,0,0-1.31,1A5.35,5.35,0,0,0,402,56a9.14,9.14,0,0,0-2.05-.11l-.86,0-.29.08a3.38,3.38,0,0,0-1.73-.16,9.25,9.25,0,0,1-1.11.13c-.42,0-.87.06-1.35.08a7.17,7.17,0,0,0-2.79.69,5.4,5.4,0,0,0-2.69,3,6.27,6.27,0,0,0-.29,1,9.9,9.9,0,0,0-.38-1.12A4.51,4.51,0,0,0,385.66,57a10.57,10.57,0,0,0-2.48-.44c-.78-.07-1.6-.1-2.46-.11h-2.36l-1.95,0a6,6,0,0,0-1.39.27c-.34.12-.68.25-1,.4a5.84,5.84,0,0,0-1.32.88,4.26,4.26,0,0,0-1.35,2.25,11.71,11.71,0,0,0-.26,2.33c0,.66,0,1.27,0,1.83,0,.2,0,.4,0,.62,0,.39,0,.78,0,1.2,0,.64.09,1.28.16,1.9s.14,1.2.23,1.79c0,0,0,.27.05.32l.11.57a2.17,2.17,0,0,1,0,.5,8.23,8.23,0,0,0-.11,1.65,13.79,13.79,0,0,0,.42,2.7,5.16,5.16,0,0,1,.2,1.22,2.28,2.28,0,0,1,0,.37c0,.37-.07.75-.09,1.23,0,1,0,2,.08,3s.1,1.81.13,2.55c0,0,0,.36,0,.41a4.71,4.71,0,0,0,.2,1h0a4.34,4.34,0,0,0,2.69,2.81,10,10,0,0,0,1.79.49,12.15,12.15,0,0,0,1.77.2H380a8.82,8.82,0,0,0,1.49-.18,8,8,0,0,0,1.8-.56,5.77,5.77,0,0,0,1.51-1,5.42,5.42,0,0,0,1.28.78,7.78,7.78,0,0,0,2.05.55,11.15,11.15,0,0,0,1.72.07l1.15-.05a6.49,6.49,0,0,0,3.23-.91,6.89,6.89,0,0,0,1-.77,5.49,5.49,0,0,0,2,1.14,8,8,0,0,0,2.67.38l1.77-.07a3.36,3.36,0,0,0,1.17-.25c.41-.17.78-.34,1.16-.52a6.83,6.83,0,0,0,1.48-.95l.32-.29a6.28,6.28,0,0,0,4.72,1.6c.56,0,1.14-.09,1.77-.18s1.14-.19,1.68-.32a11.93,11.93,0,0,1,2.18-.09,3.51,3.51,0,0,0,1.24-.29h0l1.19-.13,1.23-.06,1.15,0a7.58,7.58,0,0,1,1.07,0c.62,0,1.23,0,1.82,0l2.7-.12a4.84,4.84,0,0,0,3.24-1.41,6.64,6.64,0,0,0,1.93,1,9.2,9.2,0,0,0,2.2.38c.58,0,1.09,0,1.54,0A21.28,21.28,0,0,0,440,86a7.77,7.77,0,0,0,1.59-.08,22.73,22.73,0,0,0,2.31-.39,8.58,8.58,0,0,1,1.28-.18,7.32,7.32,0,0,0,2-.39,17.41,17.41,0,0,0,1.73-.63c.61-.25,1.17-.5,1.7-.77a6.64,6.64,0,0,0,1.84-1.31l.64-.67c.33-.35.65-.72,1-1.12.09-.11.19-.22.27-.33,0,.19.05.38.07.56V81a5.15,5.15,0,0,0,.27,1.34,3.25,3.25,0,0,0,.46.81A4.81,4.81,0,0,0,457,84.92a6.25,6.25,0,0,0,2.07.65,9,9,0,0,0,1.72.09l1,0a11,11,0,0,0,2.9-.47,4.81,4.81,0,0,0,1.35-.64,5.45,5.45,0,0,0,.8.41,6.87,6.87,0,0,0,1.95.46,11.86,11.86,0,0,0,1.46,0,5.72,5.72,0,0,0,1.14-.17H472a11.8,11.8,0,0,0,1.19,0,6,6,0,0,0,3.06-.86,5.18,5.18,0,0,0,1.92-2.1,6.21,6.21,0,0,0,.59-1.81c.55,0,1.12-.07,1.71-.09l1.11,0a6.58,6.58,0,0,0,.82,1.42,6.06,6.06,0,0,0,2.42,1.89,7,7,0,0,0,3.16.55,2.39,2.39,0,0,0,.66-.1l.31,0a6.2,6.2,0,0,1,.74-.08l1.08-.11.36,0a3.53,3.53,0,0,0,1.73-.55,3.07,3.07,0,0,1,.35-.2,8.61,8.61,0,0,0,1.17-.74,6.41,6.41,0,0,0,1.3-1.3,4.53,4.53,0,0,0,.85-2.84,6.2,6.2,0,0,0-.58-2.22"/><path d="M85.1,95.32ZM47.52,87.9c-.11.2-.22.43-.35.72s-.12.31-.18.45l-.55.28-.78.35a1.32,1.32,0,0,1-.64-.13,2.23,2.23,0,0,1-.78-.65,3.57,3.57,0,0,1-.61-1.16,5.58,5.58,0,0,1-.3-1.57A4.9,4.9,0,0,1,43.42,85a2.45,2.45,0,0,1,.8-1.44,2.36,2.36,0,0,1,.72-.44l.61-.23h0a.92.92,0,0,1,.26,0,2,2,0,0,1,.46.18,1.43,1.43,0,0,1,.49.47,10.24,10.24,0,0,1,.44.94c.08.2.18.41.28.62a1.48,1.48,0,0,0,0,.21v0c0,.45,0,.91,0,1.39Zm40.62,5.87a13.49,13.49,0,0,0-.86-1.46c-.28-.42-.56-.83-.86-1.23s-.34-.48-.56-.83l-1.13-1.59a10,10,0,0,0,2.06-2.6,9.73,9.73,0,0,0,1.07-5.13A15.57,15.57,0,0,0,87,76.52a9.42,9.42,0,0,0-3.23-4.47,14.73,14.73,0,0,0-1.45-.94,18.26,18.26,0,0,0-1.72-.81,12.08,12.08,0,0,0-1.83-.58,8,8,0,0,0-2.27-.24A9.24,9.24,0,0,0,75,69.7a4.26,4.26,0,0,1-.71,0,10.19,10.19,0,0,0-1.91-.09,8,8,0,0,0-1.79.28,1.3,1.3,0,0,1-.29,0,10.1,10.1,0,0,1-1.55,0c-.72-.05-1.43-.1-2.13-.11a2.43,2.43,0,0,0-.27,0l-1.84.08-.81,0h-.22a4.66,4.66,0,0,0-1.25-.12,4.12,4.12,0,0,0-3.75,2.6,5.35,5.35,0,0,0-.36,2c-.43-.41-.88-.79-1.35-1.17s-.89-.67-1.34-1c-.21-.17-.42-.33-.68-.51l-.37-.26a4.29,4.29,0,0,0-1.08-.59,7.57,7.57,0,0,0-2-.51c-.2,0-.4-.06-.46-.06l-2-.63a10.85,10.85,0,0,0-1.43-.18L46,69.4l-1.5,0c-.56,0-.93,0-1.06,0a11.45,11.45,0,0,0-3.36.64,13,13,0,0,0-2.78,1.36A15.2,15.2,0,0,0,35,73.22c-.63.59-1.24,1.22-1.78,1.82l-.4.44a6.29,6.29,0,0,0-.17-.62,4.8,4.8,0,0,0-1.27-2.1,4.73,4.73,0,0,0-3-1.24c-.73,0-1.48-.06-2.26,0s-1.45,0-2.19.06a5.55,5.55,0,0,0-1.77.34c-.38,0-.8-.1-1.25-.17a11.27,11.27,0,0,0-2.16-.15,14.45,14.45,0,0,0-1.83.21,6.63,6.63,0,0,1-.87.1,13.45,13.45,0,0,1-2.1-.05c-.93-.07-1.83-.13-2.72-.16a3.44,3.44,0,0,0-1.83.46c-.55.32-1,.58-1.31.8a5.53,5.53,0,0,0-1.63,1.6,5.12,5.12,0,0,0-.81,2.4,13.46,13.46,0,0,0,0,1.83A16.34,16.34,0,0,0,6,81.36a9,9,0,0,1,.18,1.47c0,.5,0,1,0,1.52s0,1.18,0,1.73A11,11,0,0,0,6.31,88a5.52,5.52,0,0,1,.1.88c0,.2,0,.41,0,.65a5.17,5.17,0,0,1,0,.57,3.1,3.1,0,0,0,.06,1.14l0,.34c0,.47.08.94.11,1.43s.06,1,.08,1.42a7.37,7.37,0,0,1-.07,1.41,13.92,13.92,0,0,0-.15,2.72c0,.37.06.77.12,1.18a8.15,8.15,0,0,0,.41,1.5,6.37,6.37,0,0,0,.86,1.56,4.69,4.69,0,0,0,2.51,1.69,5.9,5.9,0,0,0,1.58.19h.13l.89,0,2.34-.15.93-.09a6.66,6.66,0,0,0,2.05-.46,5.26,5.26,0,0,0,2.2-1.73A5,5,0,0,0,21.33,99a5.54,5.54,0,0,0-.39-1.83l-.13-3a7,7,0,0,1,.8.1,18.07,18.07,0,0,0,3.3.17,7.35,7.35,0,0,0,.76-.06l.6-.08.48,0,.93-.1a6.72,6.72,0,0,0,1.53-.38,4.73,4.73,0,0,0,.9-.46,10.61,10.61,0,0,0,1.33,2.81,18.48,18.48,0,0,0,2.06,2.56A19.46,19.46,0,0,0,36,100.82a10.83,10.83,0,0,0,2.89,1.56c.27.09.69.22,1.24.37s1.1.29,1.7.43,1.13.23,1.66.32a9,9,0,0,0,1.71.15l2.58-.11a7.53,7.53,0,0,0,.82-.09,6,6,0,0,0,.92-.21c.23-.06.49-.13.79-.23l.91-.3,1-.35.72-.28a7.38,7.38,0,0,0,1.57-.86c.42-.3.87-.63,1.33-1s.83-.68,1.2-1a7.26,7.26,0,0,0,1.25-1.29l.71-1,0,0a7.61,7.61,0,0,0,.47,2.3,5.07,5.07,0,0,0,1.84,2.4,5.64,5.64,0,0,0,2.6.94,14.49,14.49,0,0,0,2.05.05,15.91,15.91,0,0,0,2.16-.14,8.3,8.3,0,0,0,1.15-.27,6.67,6.67,0,0,0,1.52-.66c.24-.12.44-.24.54-.3A4.36,4.36,0,0,0,72.67,100a4.11,4.11,0,0,0,.64-1.44,4.59,4.59,0,0,0,.13-1.09l.12.24c.1.22.2.44.3.63s.29.57.43.81A3.83,3.83,0,0,0,76,100.71a7.6,7.6,0,0,0,3,.75c.77,0,1.45.05,2.14,0l.73-.06,1.23-.07A9.5,9.5,0,0,0,84.9,101a5.94,5.94,0,0,0,2.32-1.18,4.57,4.57,0,0,0,1.58-3.8,5.46,5.46,0,0,0-.65-2.28h0"/><path class="cls-1" d="M27.44,32.78A14.66,14.66,0,0,1,30.6,33a14.57,14.57,0,0,0,3.15.22A11,11,0,0,0,34.84,32a2.3,2.3,0,0,0,.52-1.49c0-.33,0-.67,0-1a4.31,4.31,0,0,0-.14-1,4.19,4.19,0,0,0,0-.61c0-.2,0-.4,0-.6a8.61,8.61,0,0,0-.27-2,1.73,1.73,0,0,0-.67-1A2.49,2.49,0,0,0,33,24c-.51,0-1.13,0-1.87,0-1.18.05-2.35.14-3.49.27s-2.31.22-3.49.27a13.22,13.22,0,0,1-2.41-.13,11.78,11.78,0,0,0-2.42-.13,10.13,10.13,0,0,0-1.59.17l-1.58.28a12,12,0,0,1-1.67.05c-.69,0-1.39-.05-2.11-.1s-1.45-.1-2.14-.17l-1.71-.16c-.86.31-1.57.58-2.12.82a3.76,3.76,0,0,0-1.31.95,3,3,0,0,0-.61,1.5,13.26,13.26,0,0,0-.07,2.48l.1,2.38A2.75,2.75,0,0,0,5,34.09a3.22,3.22,0,0,0,1.24,1,5,5,0,0,0,1.61.44,10.59,10.59,0,0,0,1.68,0A5,5,0,0,0,11,35.3a11.81,11.81,0,0,0,1.22-.46c.4-.16.81-.33,1.23-.48a5,5,0,0,1,1.43-.27c0,.41-.11,1-.18,1.79s-.13,1.6-.19,2.46-.12,1.69-.15,2.46a6.89,6.89,0,0,0,.08,1.72c.09.47.18,1,.29,1.49a8.83,8.83,0,0,1,.19,1.48,6.11,6.11,0,0,1-.15,1.68,4.12,4.12,0,0,0-.06,1.63c.09.6.2,1.24.31,1.91a13.4,13.4,0,0,1,.21,1.92,6,6,0,0,1-.15,1.67A6.62,6.62,0,0,0,14.91,56,10.62,10.62,0,0,0,15,57.17c.07.42.13.81.18,1.18,0,.58,0,1.14,0,1.7s0,1.11,0,1.65a3.58,3.58,0,0,0,.88,2.23,2.65,2.65,0,0,0,2.2.87A23.44,23.44,0,0,0,21,64.53a21.15,21.15,0,0,1,2.62-.27V64a4.49,4.49,0,0,0,2.48-1.37,4,4,0,0,0,.69-2.72,8.25,8.25,0,0,0-.19-1.46c-.11-.54-.22-1.08-.32-1.62s-.2-1-.28-1.56A7,7,0,0,1,25.88,54c.05-.54.1-1.1.16-1.66a10.18,10.18,0,0,0,.05-1.65c0-.5,0-1.33-.08-2.48s-.08-2.35-.16-3.62-.16-2.46-.26-3.59a10.69,10.69,0,0,0-.38-2.35l.34-2.75L25,33.45a5.88,5.88,0,0,1,2.45-.67M74.05,22.7a4.72,4.72,0,0,0-1.69-.92c-1.07.18-2.13.33-3.18.42s-2.1.17-3.18.22a3.42,3.42,0,0,0-2.57.95A3.6,3.6,0,0,0,62.76,26a17.42,17.42,0,0,0,.59,3.88,25.65,25.65,0,0,1,.75,3.83,11.18,11.18,0,0,1,.19,1.43,6,6,0,0,0,.3,1.44h-.1v.21c-.47,0-.93,0-1.36,0s-.9,0-1.37,0-.84,0-1.28-.1a9.13,9.13,0,0,0-1.27,0,11.66,11.66,0,0,0-2.89.53,11.8,11.8,0,0,1-3.1.54A4.56,4.56,0,0,1,52,37.59c-.34-.09-.52-.42-.55-1a6.53,6.53,0,0,1,.11-1.52,7.26,7.26,0,0,0,.11-1.53,20.85,20.85,0,0,0-.22-2.22,18.5,18.5,0,0,1-.22-2.23,5.59,5.59,0,0,1,.17-1.68,5.5,5.5,0,0,0,.19-1.67A2.56,2.56,0,0,0,51,24a2.83,2.83,0,0,0-1.35-.75,6.22,6.22,0,0,0-1.76-.15l-1.77.07c-1,.05-1.91.07-2.69.07a4.88,4.88,0,0,0-1.93.33,2.11,2.11,0,0,0-1.12,1.22,6.73,6.73,0,0,0-.26,2.65q.06,1.36.24,2.73c.12.9.2,1.8.24,2.68q.18,3.95.22,7.92T41,48.69A22.64,22.64,0,0,1,41,51c0,.78,0,1.56,0,2.33a7.19,7.19,0,0,0,.22,1.43,7.16,7.16,0,0,1,.21,1.43,4.71,4.71,0,0,1-.12,1.3,4.74,4.74,0,0,0-.12,1.3c0,.27,0,.63.1,1.08s.12.93.21,1.41a5.84,5.84,0,0,0,.39,1.3,1.17,1.17,0,0,0,.66.7,8.55,8.55,0,0,0,1.52.34c.55.08,1.14.12,1.75.15s1.2,0,1.78,0,1.09,0,1.57,0a3.42,3.42,0,0,0,3-1.39,5.69,5.69,0,0,0,.72-3.28,22.79,22.79,0,0,0-.59-4.23,22.75,22.75,0,0,1-.6-4.28,4.8,4.8,0,0,1,.47-2.71,2.63,2.63,0,0,1,1.58-1.1,7.1,7.1,0,0,1,2.37-.18,24.79,24.79,0,0,0,2.87,0l3.85-.17a5.07,5.07,0,0,1,.61-.38,1.51,1.51,0,0,1,.68-.21.27.27,0,0,1,.32.28h.2q0,3.45,0,6.9c-.05,2.3,0,4.6.08,6.9a2.82,2.82,0,0,0,.28.88,4.12,4.12,0,0,0,.45.81,1.56,1.56,0,0,0,.86.57,9,9,0,0,0,1.28.28,10.22,10.22,0,0,0,1.32.09l1,0a4.5,4.5,0,0,0,.63-.08,2.37,2.37,0,0,0,.63-.18A6.65,6.65,0,0,1,73,62.06c.65,0,1.25,0,1.83,0,.19-.21.46-.52.79-.94A1.75,1.75,0,0,0,76.11,60q-.06-1.3-.24-2.64c-.13-.89-.2-1.77-.25-2.65a10.06,10.06,0,0,1,.07-1.44,8.84,8.84,0,0,0,.06-1.45c0-1.11-.13-2.23-.25-3.38s-.25-2.26-.4-3.36c0-.44-.11-.88-.18-1.31s-.11-.88-.14-1.31q-.14-3.28-.12-6.53c0-2.16,0-4.35-.14-6.58a15.36,15.36,0,0,1,.09-2.44,15.81,15.81,0,0,0,.1-2.49,2.37,2.37,0,0,0-.66-1.72m39,36.76a3.35,3.35,0,0,0,.6-2,10.06,10.06,0,0,0-.16-1.37,8.57,8.57,0,0,1-.17-1.36,5,5,0,0,1,.08-1,3.88,3.88,0,0,0,.09-1,2.1,2.1,0,0,0-1-1.94,4.15,4.15,0,0,0-2.2-.42c-.57,0-1.14.08-1.69.15s-1.12.14-1.69.2c-1.25.12-2.48.21-3.69.28s-2.45.16-3.69.28a23.11,23.11,0,0,0-2.32.44,12,12,0,0,1-2.22.31,1.9,1.9,0,0,1-1.31-.32,2,2,0,0,1-.64-.91,4.34,4.34,0,0,1-.24-1.26c0-.47,0-.92-.06-1.36s0-1-.09-1.44a3.1,3.1,0,0,1,.11-1.18,1.4,1.4,0,0,1,.6-.78,2.69,2.69,0,0,1,1.41-.34,4.14,4.14,0,0,1,.74-.23,5.91,5.91,0,0,1,.76-.08,7.49,7.49,0,0,1,2.43.33,6.29,6.29,0,0,0,2,.35c1.09,0,2.16-.12,3.24-.22s2.16-.17,3.24-.22a2.6,2.6,0,0,0,1.85-.69,3.17,3.17,0,0,0,.76-1.53,7.44,7.44,0,0,0,.15-1.91c0-.71,0-1.36,0-1.93a2.4,2.4,0,0,1,0-.38,2.38,2.38,0,0,0,0-.38,2.19,2.19,0,0,0-.87-1.92A3.68,3.68,0,0,0,107,35.1a14.42,14.42,0,0,0-2,.22c-.66.12-1.32.21-2,.27s-1.46.09-2.18.08-1.44,0-2.17,0a12.38,12.38,0,0,0-2.2.29,11.53,11.53,0,0,1-2.19.29,1.32,1.32,0,0,1-1.19-.44,3,3,0,0,1-.53-1.18,7.67,7.67,0,0,1-.19-1.45A11.4,11.4,0,0,0,92.23,32a.14.14,0,0,1,0-.1.13.13,0,0,1,.14-.16,2.56,2.56,0,0,1,1.45-1,7.92,7.92,0,0,1,1.79-.31c1,0,2,0,3,0s2,0,3,0a16,16,0,0,1,2.87.11,18.31,18.31,0,0,0,2.88.11,4,4,0,0,0,2.52-.85,3,3,0,0,0,.83-2.51c0-.2,0-.62-.13-1.27s-.18-1.31-.29-2a18,18,0,0,0-.41-1.91,2.09,2.09,0,0,0-.46-1,3.36,3.36,0,0,0-1.18-.36,6.71,6.71,0,0,0-1.17,0l-.55,0a1.84,1.84,0,0,0-.51.1l-2.46.45-.66.08a.76.76,0,0,1-.3.09l-.15,0-1-.14a5.71,5.71,0,0,0-1,0q-3.5.15-7,.48l-1.66.13-.35.07c-.89-.14-1.77-.26-2.66-.36a17.15,17.15,0,0,0-2.69-.1l-.86,0-.86,0c-.26.11-.58.24-.92.4a10.3,10.3,0,0,0-1,.49,3.53,3.53,0,0,0-.81.67,1.23,1.23,0,0,0-.31.85c0,1.15.15,2.29.3,3.41s.25,2.27.3,3.41a26.85,26.85,0,0,1,0,2.69c0,.91,0,1.81,0,2.69a7.91,7.91,0,0,0,.13,1.09A9.39,9.39,0,0,1,82,38.29,18.89,18.89,0,0,1,82,40.9a19.07,19.07,0,0,0-.07,2.62,3.2,3.2,0,0,0,.14.8,3.82,3.82,0,0,1,.14.81c0,.5.07,1,.07,1.54a10,10,0,0,0,.06,1.55,8.85,8.85,0,0,0,.2,1,4.91,4.91,0,0,1,.14,1,18.05,18.05,0,0,1-.2,3.58,19.29,19.29,0,0,0-.2,3.64,6.07,6.07,0,0,0,1.23,3.65A4.11,4.11,0,0,0,87,62.36a18.4,18.4,0,0,0,2.12-.22c.74-.11,1.44-.26,2.11-.42a9.2,9.2,0,0,1,2.15-.24c.75,0,1.47,0,2.15,0A3.59,3.59,0,0,1,96.92,61q1-.13,2.1-.24c.74-.06,1.47-.1,2.18-.12s1.25,0,1.62,0a20.34,20.34,0,0,1,2.21,0,19.31,19.31,0,0,0,2.15,0l4.1-.18a2.11,2.11,0,0,0,1.76-1m57.08-36.77a7,7,0,0,0-1.74-1.59A12.65,12.65,0,0,0,166.19,20c-.77-.33-1.48-.61-2.14-.85a9.34,9.34,0,0,1-1.39-.67l-1.31-.78c-1.36-.21-2.75-.41-4.16-.61a23.62,23.62,0,0,0-4.19-.2,7.11,7.11,0,0,0-1.36.24c-.54.14-1.09.32-1.68.53l-1.7.63c-.54.21-1,.37-1.37.5a6.5,6.5,0,0,1-.93.17,1.86,1.86,0,0,0-.87.26,10.27,10.27,0,0,0-1.45,1.23q-1,1-2,2.1c-.69.76-1.32,1.48-1.88,2.16a4.13,4.13,0,0,0-.92,1.49,22.09,22.09,0,0,0-.6,6.13,14.74,14.74,0,0,0,.65,3.7,6.91,6.91,0,0,0,2,3.14l.72.66,1,.85c.35.28.7.55,1,.79a4.43,4.43,0,0,0,.81.49,12.18,12.18,0,0,0,3.61.87c1.41.14,2.89.25,4.45.33s3.12.19,4.68.33a19.53,19.53,0,0,1,4.25.83h.25c0,.38,0,.76,0,1.14s-.05.78-.1,1.16a2,2,0,0,1-1,1.33,6.87,6.87,0,0,1-1.79.84,10.08,10.08,0,0,1-2.06.45c-.71.08-1.28.13-1.72.15a9,9,0,0,1-3.77-.55,15.91,15.91,0,0,1-2.83-1.44c-.82-.54-1.52-1-2.09-1.48a2.52,2.52,0,0,0-1.58-.65,4.7,4.7,0,0,0-1.44.67c-.73.45-1.5.95-2.32,1.53s-1.58,1.13-2.29,1.67a6.74,6.74,0,0,0-1.29,1.17,4.19,4.19,0,0,0-.3.6,1.57,1.57,0,0,0-.1.69,1.5,1.5,0,0,0,.29.71,7.53,7.53,0,0,0,.62.84,8.56,8.56,0,0,0,.72.75l.58.53a21.55,21.55,0,0,1,1.63,1.55,14.86,14.86,0,0,0,1.7,1.49,5.78,5.78,0,0,0,2.35,1.11,22.47,22.47,0,0,0,3.22.57c1.14.12,2.26.2,3.36.23l2.77.11a5.76,5.76,0,0,1,.83-.14c.42-.06.88-.09,1.39-.12l1.42-.06.91,0a2.68,2.68,0,0,1,.84-.39,4.82,4.82,0,0,1,1-.15,2.53,2.53,0,0,1,1.3-.43,4.1,4.1,0,0,0,1.31-.24,12.13,12.13,0,0,0,4.09-2.15,13.9,13.9,0,0,0,3-3.36A14.43,14.43,0,0,0,172,48.21a15.36,15.36,0,0,0,.49-4.61c0-.47-.06-.93-.11-1.39s-.13-.92-.21-1.39a6,6,0,0,0-.88-2,11,11,0,0,0-1.63-1.93,14.4,14.4,0,0,0-2-1.59,9.54,9.54,0,0,0-2-1,14.45,14.45,0,0,0-1.8-.48c-.68-.14-1.4-.27-2.15-.39s-1.47-.21-2.19-.26L157.56,33l-2.39-.07a20.84,20.84,0,0,1-2.39-.17,7,7,0,0,1-1.15-.26,5.56,5.56,0,0,1-1.12-.48,2.62,2.62,0,0,1-.84-.78,2.23,2.23,0,0,1-.36-1.13,2,2,0,0,1,.45-1.38,3.48,3.48,0,0,1,1.21-.92,6.86,6.86,0,0,1,1.55-.5A11.55,11.55,0,0,1,154,27.1a7.25,7.25,0,0,1,2.56.52c1.07.38,2.13.81,3.2,1.29s2,.91,2.9,1.29a5.14,5.14,0,0,0,1.65.56,4.39,4.39,0,0,0,1.85-.69,13.93,13.93,0,0,0,2.18-1.57,12.44,12.44,0,0,0,1.82-1.9,2.75,2.75,0,0,0,.74-1.71,3.84,3.84,0,0,0-.78-2.2m38.65,33.57c.45-.07.94-.12,1.46-.17s1-.08,1.47-.14l.93-.09a8.63,8.63,0,0,1,1-.57,8,8,0,0,0,1.08-.71,4.1,4.1,0,0,0,.85-.87,1.69,1.69,0,0,0,.31-1.08,5.28,5.28,0,0,0-.45-1.57,22.26,22.26,0,0,0-1-2.11c-.38-.73-.76-1.42-1.13-2.06s-.64-1.11-.82-1.41a4.36,4.36,0,0,1-.45-1q-.18-.57-.33-1.17l-.3-1.2A7.06,7.06,0,0,0,211,41a8.47,8.47,0,0,0-.79-1.21,3.91,3.91,0,0,1-.69-1.21c-.12-.37-.23-.72-.33-1.08s-.2-.7-.32-1.07a10.88,10.88,0,0,0-.65-1.49c-.31-.63-.67-1.29-1.05-2s-.76-1.36-1.13-2-.67-1.12-.92-1.48a27.13,27.13,0,0,0-1.33-4.81q-.85-2.23-1.57-4.64a3.66,3.66,0,0,0-1.33-1.84,8,8,0,0,0-2.2-1.2,11.92,11.92,0,0,0-2.54-.62,12.46,12.46,0,0,0-2.26-.13,7.68,7.68,0,0,0-1.29.18c-.45.11-1.06.23-1.84.36a3.79,3.79,0,0,0-1.77.69,4.55,4.55,0,0,0-1.18,1.32,5.63,5.63,0,0,0-.69,1.7,17.3,17.3,0,0,0-.32,1.84,14.71,14.71,0,0,0-1.12,2.29,9.44,9.44,0,0,0-.6,2.45,3.67,3.67,0,0,0-.61,1.1,9.14,9.14,0,0,0-.38,1.26,9.54,9.54,0,0,0-.22,1.3c-.05.44-.12.85-.2,1.23a5.35,5.35,0,0,1-.65,1.55,6.59,6.59,0,0,0-.69,1.55,4.28,4.28,0,0,0-.14,1.37,3,3,0,0,1-.2,1.28c-.34.86-.66,1.71-1,2.56s-.64,1.69-1,2.55a11.94,11.94,0,0,0-.6,2.39c-.14.86-.27,1.68-.41,2.43a4.28,4.28,0,0,0-.09.74,3.39,3.39,0,0,1-.09.68,12.7,12.7,0,0,1-.67,1.63c-.26.53-.52,1.08-.77,1.63a15.4,15.4,0,0,0-.61,1.68,5.45,5.45,0,0,0-.2,1.76,2.46,2.46,0,0,0,.47,1.45,2.75,2.75,0,0,0,1.08.82,4.91,4.91,0,0,0,1.43.34,12.72,12.72,0,0,0,1.5,0,3.38,3.38,0,0,0,.85-.15,3.23,3.23,0,0,1,.91-.16c.47,0,.93,0,1.37,0s.9,0,1.37,0a4.3,4.3,0,0,0,2.08-.52,2.82,2.82,0,0,0,1-1.14,5,5,0,0,0,.45-1.49,10.3,10.3,0,0,1,.33-1.58,4.32,4.32,0,0,1,.67-1.4,2.91,2.91,0,0,1,1.46-1,8.33,8.33,0,0,1,1.91-.29c1-.08,2-.14,3-.18s2.08-.09,3-.11l1.7-.05a1.45,1.45,0,0,1,.35-.19.93.93,0,0,1,.4-.09.22.22,0,0,1,.26.23h.25a11.3,11.3,0,0,0,.37,2.46,5.79,5.79,0,0,0,.92,2,4.28,4.28,0,0,0,1.63,1.3,5.38,5.38,0,0,0,2.48.39c.13,0,.42-.09.88-.16M195.2,29a.87.87,0,0,1,.3.32l.87,3.86a3.62,3.62,0,0,0,.49,1.2,5.39,5.39,0,0,1,.53,1.24c.2.74.42,1.49.63,2.26a12.36,12.36,0,0,0,.83,2.14,1.44,1.44,0,0,1,.25.37,1.15,1.15,0,0,1,.14.43v0s0,.05,0,.05a2.13,2.13,0,0,1-.85.52,6.54,6.54,0,0,1-1.2.33,11.66,11.66,0,0,1-1.26.19l-1,.06c-.2,0-.45,0-.73,0a4.6,4.6,0,0,1-.84-.09,2.07,2.07,0,0,1-.73-.29.77.77,0,0,1-.33-.63,7.94,7.94,0,0,1,.19-2.11c.15-.7.34-1.39.54-2.08s.42-1.37.62-2.08a16.15,16.15,0,0,0,.47-2.07c.1-.68.21-1.33.32-1.94s.25-1.26.42-1.95a1.53,1.53,0,0,1,.39.21m53.63,25.89c.37-.05.77-.09,1.19-.12s.82-.06,1.19-.08l.91,0,1.64-.78a2,2,0,0,0,1.11-1.37,4.62,4.62,0,0,0,0-.92c0-.54,0-1.11-.07-1.72s-.07-1.25-.12-1.82-.08-1-.09-1.17c0-.71,0-1.41,0-2.1s0-1.4,0-2.11a6.11,6.11,0,0,0-.22-1.36c-.12-.47-.26-.92-.41-1.35.05-.35.11-.72.18-1.15a5.94,5.94,0,0,0,.07-1.15c-.05-.57-.09-1.14-.13-1.69s-.07-1.13-.09-1.7a11.63,11.63,0,0,1,.1-2.19,12.53,12.53,0,0,0,.1-2.19,7,7,0,0,0-.22-1.46,7,7,0,0,1-.22-1.46,3,3,0,0,1,.15-1.1,3.44,3.44,0,0,0,.15-1.1l-.33-7.6a4.13,4.13,0,0,0-.77-2.31,3.78,3.78,0,0,0-2.23-1.11,2.72,2.72,0,0,1-.8.36,10.3,10.3,0,0,1-1.06.25c-.36.07-.73.13-1.1.18s-.68.07-.92.09a17.65,17.65,0,0,0-2.59.41,2.48,2.48,0,0,0-1.37.8,2.67,2.67,0,0,0-.49,1.52c0,.65,0,1.51,0,2.59.07,1.65.21,3.3.42,4.93s.43,3.27.67,4.92c.2,1.38.41,2.76.64,4.14a32.1,32.1,0,0,1,.43,4.14l-.55,0V38c-.15-.44-.32-.91-.49-1.43s-.36-1-.54-1.37a30.13,30.13,0,0,0-1.68-3l-1.88-2.94a8.15,8.15,0,0,0-.65-.91,4.32,4.32,0,0,1-.6-1,37.17,37.17,0,0,0-2-3.67c-.72-1.18-1.5-2.35-2.33-3.5a5.41,5.41,0,0,1-.55-1l-.45-1c-.15-.35-.32-.69-.5-1a3.53,3.53,0,0,0-.7-.88,2.77,2.77,0,0,0-1.29-.58,14.77,14.77,0,0,0-1.84-.28c-.64-.05-1.27-.08-1.88-.09s-1.09,0-1.42,0-.94,0-1.7.1a15.23,15.23,0,0,0-2.29.33,6.39,6.39,0,0,0-2,.74,1.42,1.42,0,0,0-.81,1.36,1.66,1.66,0,0,0,.15.6l.26.55a4,4,0,0,1,.27,1.08q.1.74.15,1.59c0,.54,0,1.08,0,1.62s0,1,0,1.27a4.21,4.21,0,0,0,.11.84c.06.28.11.56.16.83.12,1.24.18,2.5.19,3.77s0,2.53.09,3.78a12.16,12.16,0,0,0,.3,2.27,13,13,0,0,1,.3,2.22,29.09,29.09,0,0,1,0,3.1c-.05,1-.06,2,0,3.05q.08,1.77.21,3.54c.08,1.18.19,2.36.31,3.54,0,.2,0,.49.06.86s.07.75.13,1.14a8,8,0,0,0,.2,1.11,1.68,1.68,0,0,0,.34.77,1.9,1.9,0,0,0,1,.66,8.09,8.09,0,0,0,1.51.32,13.77,13.77,0,0,0,1.57.09l1.29,0a2.72,2.72,0,0,1,1.46-.47,9,9,0,0,0,1.69-.22,2.6,2.6,0,0,0,1.33-.82,3.36,3.36,0,0,0,.48-2.31c0-1.12-.14-2.22-.3-3.34L231.29,46a36.24,36.24,0,0,1-.33-4.17c0-1.4-.07-2.82-.14-4.23a5.86,5.86,0,0,0-.3-1.67,6.15,6.15,0,0,1-.29-1.66,3.06,3.06,0,0,1,0-.4,4.3,4.3,0,0,1,0-.72,2.07,2.07,0,0,1,.15-.64c.07-.19.18-.29.31-.29v.1c.41.93.83,1.84,1.26,2.74a29,29,0,0,0,1.41,2.63,7.49,7.49,0,0,0,.59.91c.22.28.41.57.6.86.4.73.79,1.48,1.16,2.23s.78,1.51,1.22,2.24,1,1.57,1.52,2.34a7.91,7.91,0,0,1,1.07,2.57,19.75,19.75,0,0,1,1.86,2.43,13,13,0,0,0,1.56,2,5.9,5.9,0,0,0,2,1.39,7,7,0,0,0,3.09.42,3.22,3.22,0,0,1,.8-.19m39-3.3a30.67,30.67,0,0,0,3.42-2.91,24.49,24.49,0,0,0,2.86-3.31,4.93,4.93,0,0,0,1.13-2.94,2.49,2.49,0,0,0-.88-1.63,9.28,9.28,0,0,0-2-1.47,12.7,12.7,0,0,0-2.3-1,5.86,5.86,0,0,0-1.89-.35,2.24,2.24,0,0,0-1.81.95c-.43.59-.89,1.26-1.39,2a8.69,8.69,0,0,1-1.89,2,5.67,5.67,0,0,1-3.32,1,8.69,8.69,0,0,1-5-1.26A22.36,22.36,0,0,1,272,38.27a12.79,12.79,0,0,1-1.31-5.05,19.9,19.9,0,0,1,0-2,13.41,13.41,0,0,1,.34-2.17,8.57,8.57,0,0,1,.75-2A4.65,4.65,0,0,1,273,25.5a8.64,8.64,0,0,1,1.15-.79,9.46,9.46,0,0,0,1.16-.79c.53-.36,1.06-.7,1.6-1a4,4,0,0,1,1.84-.51,4.11,4.11,0,0,1,1.27.15,6.18,6.18,0,0,1,1.31.5,11.28,11.28,0,0,1,1.23.71,5.84,5.84,0,0,1,1,.82c.24.26.51.57.8.93a10.94,10.94,0,0,0,.9,1,4.43,4.43,0,0,0,1.05.8,2.47,2.47,0,0,0,1.23.28,3.64,3.64,0,0,0,1.28-.29,5.19,5.19,0,0,0,1.07-.63c.33-.25.65-.52,1-.8a7.47,7.47,0,0,1,1-.76,7.08,7.08,0,0,1,.53-.66c.26-.3.51-.62.77-1s.47-.69.66-1a1.44,1.44,0,0,0,.28-.72,3.4,3.4,0,0,0-.8-2c-.5-.64-1-1.19-1.39-1.64s-.57-.61-.85-.93-.57-.63-.85-.93a12.13,12.13,0,0,0-3.24-2.2,20.42,20.42,0,0,0-3.79-1.3,24.52,24.52,0,0,0-4-.62,36.19,36.19,0,0,0-3.88-.06l-.63.13-1.27.31-1.29.34a2.9,2.9,0,0,0-.62.2,29.28,29.28,0,0,0-3,1.66,19.12,19.12,0,0,0-2.75,2,14.53,14.53,0,0,0-2,2.25A22.73,22.73,0,0,0,262,21.84a18.56,18.56,0,0,0-1.31,3.05,12.8,12.8,0,0,0-.61,3q0,1.17,0,2.34c0,.77.07,1.55.11,2.33.05,1.18.05,2.38,0,3.58s0,2.4,0,3.58a5.46,5.46,0,0,0,.41,1.74,18.07,18.07,0,0,0,.86,1.86c.34.63.66,1.25,1,1.84a12.27,12.27,0,0,1,.76,1.7l2.65,2.63a14.89,14.89,0,0,0,6.59,3.9,24.73,24.73,0,0,0,7.62.86,8.39,8.39,0,0,0,2.27-.46,7.59,7.59,0,0,1,2.62-.36,18.07,18.07,0,0,0,2.86-1.81M320.22,20a14.53,14.53,0,0,1,3.15.22,14.66,14.66,0,0,0,3.16.22,14.58,14.58,0,0,0,1.09-1.26,2.35,2.35,0,0,0,.52-1.49c0-.34,0-.67-.05-1a4,4,0,0,0-.15-1,3,3,0,0,0,0-.6l0-.61a8.15,8.15,0,0,0-.26-2,1.74,1.74,0,0,0-.68-1,2.42,2.42,0,0,0-1.23-.33c-.51,0-1.13,0-1.88,0-1.18,0-2.34.14-3.48.26s-2.31.22-3.49.28a14.35,14.35,0,0,1-2.42-.13,12.46,12.46,0,0,0-2.41-.14,11.39,11.39,0,0,0-1.59.18c-.56.09-1.08.18-1.59.28a11.94,11.94,0,0,1-1.67.05c-.67,0-1.38-.05-2.11-.1L303,11.72l-1.7-.16c-.87.31-1.58.58-2.12.82a3.64,3.64,0,0,0-1.31.95,3,3,0,0,0-.61,1.5,12.48,12.48,0,0,0-.07,2.48l.1,2.38a2.68,2.68,0,0,0,.53,1.62,3.26,3.26,0,0,0,1.23,1,5.11,5.11,0,0,0,1.62.44,10.62,10.62,0,0,0,1.68.05,5.15,5.15,0,0,0,1.43-.24c.42-.14.82-.29,1.22-.46s.81-.33,1.23-.48a5,5,0,0,1,1.43-.27c0,.41-.11,1-.17,1.79s-.14,1.59-.21,2.46-.11,1.69-.14,2.46a6.89,6.89,0,0,0,.08,1.72c.08.47.18,1,.29,1.49a10.17,10.17,0,0,1,.19,1.48,6.55,6.55,0,0,1-.16,1.68,4.25,4.25,0,0,0,0,1.62c.09.61.2,1.25.31,1.92a17.12,17.12,0,0,1,.21,1.91,6.55,6.55,0,0,1-.16,1.68,7,7,0,0,0-.15,1.68,10.78,10.78,0,0,0,.13,1.19c.07.42.13.81.18,1.18,0,.57,0,1.14,0,1.7s0,1.11,0,1.65a3.42,3.42,0,0,0,.89,2.23,2.61,2.61,0,0,0,2.19.87,23,23,0,0,0,2.62-.27,19.71,19.71,0,0,1,2.63-.27v-.26a4.52,4.52,0,0,0,2.48-1.37,4,4,0,0,0,.69-2.72,11,11,0,0,0-.19-1.47L319,44.05c-.1-.53-.2-1-.27-1.56a7,7,0,0,1-.08-1.31c0-.55.1-1.1.16-1.66a10.18,10.18,0,0,0,.05-1.65c0-.5-.05-1.33-.08-2.48s-.09-2.36-.16-3.62-.16-2.46-.26-3.59a11.34,11.34,0,0,0-.38-2.35l.34-2.75-.57-2.41a6,6,0,0,1,2.46-.67m46.84,16.29a5.69,5.69,0,0,1-.11-.8c0-.41,0-.83,0-1.25s0-.85,0-1.29a16.33,16.33,0,0,0-.41-2.8,11,11,0,0,1-.29-2.7l.09-2.64c0-.88,0-1.76,0-2.64a7.63,7.63,0,0,0-.15-1.24,7.54,7.54,0,0,1-.16-1.23,4,4,0,0,1,.22-1.46,3.9,3.9,0,0,0,.21-1.45,12.13,12.13,0,0,0-.17-1.64,12.13,12.13,0,0,1-.17-1.64.42.42,0,0,1-.07-.26,4,4,0,0,1,.11-1.09,4,4,0,0,0,.1-1.1,1.69,1.69,0,0,0-.67-1.38,4,4,0,0,0-1.5-.7,8.78,8.78,0,0,0-1.78-.25c-.61,0-1.14,0-1.58,0a11.21,11.21,0,0,1-2.75.76,6,6,0,0,0-1.91.48A2.15,2.15,0,0,0,355,11.28a9.71,9.71,0,0,0-.22,3.13c0,.84.11,1.68.22,2.5s.17,1.67.21,2.55a13.84,13.84,0,0,1-.07,1.93,1,1,0,0,0,.09.33,3,3,0,0,1,.15.5c0,.18.08.35.12.5a2.08,2.08,0,0,1,.07.28c0,.77,0,1.57,0,2.37s0,1.62,0,2.39a5,5,0,0,0,.17,1.13c.11.39.2.77.29,1.13a11.68,11.68,0,0,1,.16,1.37l.05,1.31a23.2,23.2,0,0,1-.05,2.87,9.94,9.94,0,0,1-.59,2.76,5.07,5.07,0,0,1-1.48,2.12,4.38,4.38,0,0,1-2.72.93,5.45,5.45,0,0,1-2.1-.26,6.28,6.28,0,0,1-1.61-.87,7.2,7.2,0,0,1-1.34-1.31l-1.31-1.59c-.09-.4-.18-.85-.27-1.36a4.57,4.57,0,0,1-.06-1.36,9.31,9.31,0,0,1-.45-1.68,12.76,12.76,0,0,1-.11-4.11,13.42,13.42,0,0,0,.11-2.36c0-.84-.1-1.68-.16-2.5s-.13-1.66-.16-2.51c0-.67-.06-1.36-.1-2.07s0-1.41,0-2.08a16.68,16.68,0,0,1,.25-2.07,10.28,10.28,0,0,0,.13-2.06,3.84,3.84,0,0,0-.44-1.88,1.91,1.91,0,0,0-1-.84,3.91,3.91,0,0,0-1.5-.19l-1.83.08c-.57,0-1.22,0-1.92,0a13.32,13.32,0,0,0-2.1.17,5.22,5.22,0,0,0-1.85.66,2.59,2.59,0,0,0-1.13,1.47c.1,1.39.23,2.74.41,4.07s.29,2.68.35,4.06c0,.95.06,1.89,0,2.82s0,1.87.05,2.81a16,16,0,0,0,.15,1.7q.1.83.15,1.68a19.84,19.84,0,0,1-.05,2.44,19.23,19.23,0,0,0-.05,2.39c0,.06,0,.25.05.56s.07.63.12,1,.11.68.17,1a4.48,4.48,0,0,0,.15.55,19.56,19.56,0,0,1,.19,2c0,.61.06,1.25.08,1.93a23.42,23.42,0,0,0,1.33,2,15.29,15.29,0,0,0,1.58,1.81c.7.68,1.46,1.37,2.25,2.09A11.59,11.59,0,0,0,342,49.26a9.4,9.4,0,0,0,2.75.85,25.48,25.48,0,0,0,3.47.35c1.2,0,2.37.07,3.5.06s2.1,0,2.91-.08c.9-.41,1.79-.79,2.67-1.13l2.72-1a5.24,5.24,0,0,0,.86-.49q.47-.33,1-.75c.32-.29.62-.56.9-.83s.51-.5.71-.72c.48-.49,1-1.06,1.54-1.71a7.71,7.71,0,0,0,1.24-2c.09-.24.19-.58.31-1s.22-.88.32-1.35.18-.93.24-1.36a5.17,5.17,0,0,0,.09-1,3.78,3.78,0,0,0-.12-.81m37.08,11.44c.45-.07.94-.13,1.46-.17s1-.08,1.47-.13a8.43,8.43,0,0,1,.93-.09,8.65,8.65,0,0,1,1-.58,7,7,0,0,0,1.09-.71,3.88,3.88,0,0,0,.85-.87,1.74,1.74,0,0,0,.31-1.08,5.28,5.28,0,0,0-.45-1.57,22.26,22.26,0,0,0-1-2.11c-.38-.73-.76-1.42-1.13-2.06s-.64-1.11-.82-1.4a4.76,4.76,0,0,1-.45-1c-.12-.39-.23-.78-.33-1.18s-.21-.8-.31-1.21a6.64,6.64,0,0,0-.37-1.09,7.94,7.94,0,0,0-.79-1.21,4.26,4.26,0,0,1-.69-1.21c-.12-.37-.23-.73-.32-1.07s-.21-.71-.33-1.08a12.3,12.3,0,0,0-.65-1.49q-.48-.95-1.05-2c-.38-.69-.76-1.36-1.13-2s-.67-1.12-.92-1.48a27.13,27.13,0,0,0-1.33-4.81q-.86-2.23-1.57-4.64a3.76,3.76,0,0,0-1.32-1.84A8.25,8.25,0,0,0,394,8.47a11.78,11.78,0,0,0-2.54-.62,13.44,13.44,0,0,0-2.26-.13,7.82,7.82,0,0,0-1.29.18c-.45.11-1.06.22-1.84.36a3.71,3.71,0,0,0-1.76.69,4.57,4.57,0,0,0-1.19,1.32,5.88,5.88,0,0,0-.68,1.7,15.15,15.15,0,0,0-.33,1.84A14.17,14.17,0,0,0,381,16.09a10.53,10.53,0,0,0-.6,2.46,3.93,3.93,0,0,0-.62,1.1,10.73,10.73,0,0,0-.37,1.26,11,11,0,0,0-.22,1.3c0,.44-.12.85-.2,1.23a5.48,5.48,0,0,1-.64,1.55,6.41,6.41,0,0,0-.7,1.55,4.31,4.31,0,0,0-.14,1.38,3,3,0,0,1-.2,1.28l-1,2.55c-.32.84-.64,1.69-1,2.55a11.77,11.77,0,0,0-.6,2.39c-.13.87-.27,1.68-.4,2.42a3.76,3.76,0,0,0-.1.75,2.8,2.8,0,0,1-.09.68,12.14,12.14,0,0,1-.67,1.63c-.26.54-.52,1.08-.76,1.63a13.63,13.63,0,0,0-.62,1.68,5.41,5.41,0,0,0-.2,1.76,2.5,2.5,0,0,0,.47,1.45,2.64,2.64,0,0,0,1.08.81,4.35,4.35,0,0,0,1.43.35,10.91,10.91,0,0,0,1.5,0,3.46,3.46,0,0,0,.86-.15,3.55,3.55,0,0,1,.9-.16c.47,0,.93,0,1.37,0s.89,0,1.37,0A4.16,4.16,0,0,0,383,49a2.82,2.82,0,0,0,1-1.14,4.72,4.72,0,0,0,.44-1.48,11.48,11.48,0,0,1,.34-1.59,4.64,4.64,0,0,1,.67-1.4,2.91,2.91,0,0,1,1.46-1,8.33,8.33,0,0,1,1.91-.29c1-.08,2-.14,3-.18s2.08-.08,3-.11l1.7-.05a1.9,1.9,0,0,1,.35-.19,1.11,1.11,0,0,1,.4-.09.21.21,0,0,1,.26.24l.26,0a11.22,11.22,0,0,0,.36,2.47,5.79,5.79,0,0,0,.92,2,4.19,4.19,0,0,0,1.63,1.3,5.37,5.37,0,0,0,2.48.4,7.47,7.47,0,0,1,.88-.17M390.57,20.5a.75.75,0,0,1,.29.32l.89,3.87a3.72,3.72,0,0,0,.48,1.19,5.28,5.28,0,0,1,.53,1.25q.3,1.1.63,2.25a12.47,12.47,0,0,0,.83,2.15,1.15,1.15,0,0,1,.25.37,1.07,1.07,0,0,1,.14.42v0s0,.05-.05.05a2,2,0,0,1-.84.52,6.88,6.88,0,0,1-1.21.33,11.66,11.66,0,0,1-1.26.19l-1,.07h-.73a4.6,4.6,0,0,1-.84-.1,1.76,1.76,0,0,1-.73-.3.74.74,0,0,1-.33-.62,8.38,8.38,0,0,1,.19-2.11c.16-.7.33-1.39.54-2.08s.42-1.38.62-2.08a16.15,16.15,0,0,0,.47-2.07c.11-.68.21-1.33.32-1.94s.25-1.27.42-1.95a1.38,1.38,0,0,1,.39.21m59,21.17c-.29-.56-.61-1.14-1-1.73s-.77-1.17-1.17-1.72-.7-1-.92-1.39l-1.73-2.53a14.73,14.73,0,0,0-2-2.32,2.41,2.41,0,0,1-.83-1.69.74.74,0,0,1,.27-.67,10.36,10.36,0,0,1,.93-.5,6.43,6.43,0,0,0,.86-.49,11.19,11.19,0,0,0,3.6-3.94,10.16,10.16,0,0,0,1-5.24,19.72,19.72,0,0,0-1-5.39,9.39,9.39,0,0,0-3.08-4.43,15.71,15.71,0,0,0-1.62-1.07,15.29,15.29,0,0,0-2-1,14.25,14.25,0,0,0-2.09-.7,7,7,0,0,0-1.94-.22,6.45,6.45,0,0,0-1.18.17A6.58,6.58,0,0,1,434.5,7a13.1,13.1,0,0,1-2-.07,11.81,11.81,0,0,0-2-.07,7.1,7.1,0,0,0-1.59.23,8.3,8.3,0,0,1-1.53.22,29.64,29.64,0,0,1-3,0c-1-.06-2-.1-3-.12l-1.32.06-1.47.06c-.47,0-.94,0-1.39,0a7.08,7.08,0,0,1-1.2-.08l-.43-.09a1.5,1.5,0,0,0-.44,0,1.07,1.07,0,0,0-1.08.61,3,3,0,0,0-.2,1.29,4.12,4.12,0,0,0,.15,1,6.56,6.56,0,0,1,.14,1,5.65,5.65,0,0,1-.16,1.54,3.59,3.59,0,0,0-.06,1.52c.09.57.21,1.18.35,1.81a8.68,8.68,0,0,1,.26,1.81,3.14,3.14,0,0,1-.13,1.1,3.69,3.69,0,0,0-.13,1.1,5.79,5.79,0,0,0,.24,1.41,5.71,5.71,0,0,1,.24,1.41,8.74,8.74,0,0,1,0,1.14c0,.39-.06.77-.08,1.14a8.28,8.28,0,0,0,.06,1.32c.05.44.08.89.11,1.36.07,1.73.09,3.42,0,5.07s0,3.35,0,5.07a8,8,0,0,0,.12,1,6.25,6.25,0,0,1,.13,1q0,.91,0,1.83c0,.61,0,1.22,0,1.82a7.55,7.55,0,0,0,.38,2.27,2.66,2.66,0,0,0,.92,1.28,3.17,3.17,0,0,0,1.54.54,15.23,15.23,0,0,0,2.31.05c.54,0,1,0,1.45,0a6.44,6.44,0,0,0,1.19-.1,10.93,10.93,0,0,0,1.13-.28,5.94,5.94,0,0,0,1.31-.61l.67-.39a1.27,1.27,0,0,0,.42-.37,1.44,1.44,0,0,0,.2-.49,3,3,0,0,0,0-.79,10.44,10.44,0,0,0-.19-1.54,9,9,0,0,1-.19-1.48c0-.31,0-.62,0-.94a7.41,7.41,0,0,0,0-.94,12.21,12.21,0,0,0-.36-2.4,11.4,11.4,0,0,1-.36-2.44,3.63,3.63,0,0,1,.18-1.56,1.25,1.25,0,0,1,.73-.66,3.63,3.63,0,0,1,1.21-.18c.48,0,1,0,1.57,0a1.59,1.59,0,0,1,.71-.19,1.69,1.69,0,0,1,.9.24,2.37,2.37,0,0,1,.71.66,3.29,3.29,0,0,1,.37,1,7.92,7.92,0,0,0,.28,1,3.44,3.44,0,0,0,.46.84,5.13,5.13,0,0,1,.52.84,1.51,1.51,0,0,1,.14.37c.06.19.13.38.21.58s.15.38.22.55a1.19,1.19,0,0,1,.12.29q.75,1,1.38,2a23.41,23.41,0,0,1,1.17,2c.08.14.17.34.29.6s.23.54.36.82a7.33,7.33,0,0,0,.42.79,1.06,1.06,0,0,0,.42.46,6,6,0,0,0,2.46.61,25,25,0,0,0,2.54,0l1.32-.11c.47,0,1-.05,1.69-.1a10,10,0,0,0,1.87-.3,3.82,3.82,0,0,0,1.48-.78,1.9,1.9,0,0,0,.57-1.6,3.73,3.73,0,0,0-.44-1.4M429.23,15.3a18.63,18.63,0,0,1,3.35.1,8.13,8.13,0,0,1,3,1,4,4,0,0,1,1.85,2.4,4.87,4.87,0,0,1,.14.76,5.24,5.24,0,0,1-.49,2.22,3,3,0,0,1-1.53,1.67c-.47,0-.94.06-1.41.11s-.94.13-1.41.21a9.84,9.84,0,0,0-2.3.71A6.42,6.42,0,0,1,428,25a1.33,1.33,0,0,1-.35,0h-.3a1.75,1.75,0,0,0-.56,0,.9.9,0,0,1-.56-.1,1.2,1.2,0,0,1-.62-.79,7.07,7.07,0,0,1-.31-1.3,13.54,13.54,0,0,1-.14-1.37c0-.47,0-.82-.05-1.06q0-.81-.12-1.59c-.06-.52-.09-1.07-.12-1.65a1.39,1.39,0,0,1,.52-.93c.36-.35.61-.6.78-.74l3-.16m58.95-9.58a3,3,0,0,0-1.27-.5A3.79,3.79,0,0,0,485.79,5c-.64,0-1.36-.1-2.14-.13s-1.53-.05-2.26-.05H480a5,5,0,0,0-2.16.55,5.71,5.71,0,0,0-1.64,1.29A7,7,0,0,0,475,8.5a11.17,11.17,0,0,0-.73,2.08c-.12.18-.34.45-.64.82a3.22,3.22,0,0,0-.55.81,17.71,17.71,0,0,0-.94,2.83,14.71,14.71,0,0,1-1,2.83.76.76,0,0,0-.08.36l-.46,0v-.2c-.25-.39-.61-1-1.06-1.7L468,13.88q-.84-1.37-1.77-2.79c-.62-1-1.21-1.82-1.79-2.61a21.28,21.28,0,0,0-1.63-2,3.26,3.26,0,0,0-1.24-1c-.16,0-.58-.07-1.22-.12s-1.33-.11-2.06-.14l-2.06-.09c-.64,0-1.06,0-1.27,0a1.84,1.84,0,0,1-.93.17,7,7,0,0,0-1.53.19,3.15,3.15,0,0,0-1.42.72,2,2,0,0,0-.56,1.65,4.5,4.5,0,0,0,.08.63,1.85,1.85,0,0,0,.17.57,12.66,12.66,0,0,0,2.36,3,27.91,27.91,0,0,1,2.61,2.75,7.81,7.81,0,0,1,1,1.56,8.52,8.52,0,0,0,1,1.55c.57.68,1.1,1.34,1.56,2s1,1.34,1.46,2.09a10.18,10.18,0,0,0,.86,1l1.3,1.42c.44.48.85.95,1.23,1.39a2.39,2.39,0,0,1,.57.86c.09.67.16,1.33.19,2s.05,1.29.08,1.92a16,16,0,0,1,0,1.83,15.2,15.2,0,0,0,0,1.78,8.76,8.76,0,0,0,.19,1.56,11.08,11.08,0,0,1,.2,1.56,11.81,11.81,0,0,1-.11,2.14,9.91,9.91,0,0,0-.11,2.09,3.49,3.49,0,0,0,.59,2,3,3,0,0,0,1.36,1,6,6,0,0,0,1.87.38c.7,0,1.38,0,2.06,0l2-.11a6.83,6.83,0,0,0,2-.42,3.78,3.78,0,0,0,1.5-1,2.7,2.7,0,0,0,.55-2,4.42,4.42,0,0,0-.31-1.45,3.38,3.38,0,0,1-.27-1.42c0-.7,0-1.41,0-2.1s0-1.39-.06-2.1a4.4,4.4,0,0,0-.24-1.26,4.76,4.76,0,0,1-.23-1.25c0-.14,0-.51,0-1.12s0-1.25.05-1.93,0-1.31.06-1.91a5.94,5.94,0,0,1,.09-1c.45-.63.92-1.24,1.41-1.84a17,17,0,0,0,1.32-1.78,17.92,17.92,0,0,0,1.58-2.76A19.2,19.2,0,0,1,482,16.74c1-1.46,2-2.89,3-4.27s2.06-2.75,3.12-4.12a7.08,7.08,0,0,0,.47-.7,1.48,1.48,0,0,0,.22-.85,1.33,1.33,0,0,0-.68-1.08"/><path class="cls-1" d="M27,74.71a5.44,5.44,0,0,0-.15-.84,1.61,1.61,0,0,0-.39-.66,1.18,1.18,0,0,0-.77-.3c-.65,0-1.33,0-2,0s-1.39,0-2.07.06a6.66,6.66,0,0,0-1.17.2,3.27,3.27,0,0,1-1.14.14c-.45-.05-.93-.12-1.45-.21a7.47,7.47,0,0,0-1.45-.1,9.13,9.13,0,0,0-1.37.16,10.35,10.35,0,0,1-1.35.16,21.91,21.91,0,0,1-2.55-.06c-.87-.08-1.71-.13-2.55-.16-.48.28-.86.53-1.14.72a2.18,2.18,0,0,0-.65.63,1.9,1.9,0,0,0-.26.87,10.86,10.86,0,0,0,0,1.43,13.5,13.5,0,0,0,.26,2.12A13.23,13.23,0,0,1,7,80.93c0,.58,0,1.17,0,1.76s0,1.19,0,1.77a9,9,0,0,0,.11,1.36,10.67,10.67,0,0,1,.15,1.36q0,.43,0,.9c0,.32,0,.62-.06.92l0-.1v.2l.06.7c0,.52.08,1,.12,1.56s.06,1,.09,1.56a11.72,11.72,0,0,1-.11,2.14,11.08,11.08,0,0,0-.11,2.15c0,.25,0,.51.08.8a4.11,4.11,0,0,0,.23.85,3.23,3.23,0,0,0,.4.76,1.23,1.23,0,0,0,.66.46,3.13,3.13,0,0,0,.78.07l.81,0c.36,0,.71,0,1.05-.06L12.4,100l1.06-.1a3.12,3.12,0,0,0,1-.23,1.6,1.6,0,0,0,.71-.57A1.75,1.75,0,0,0,15.41,98a2.28,2.28,0,0,0-.19-.85,2.48,2.48,0,0,1-.18-.82l-.17-3.75a4.41,4.41,0,0,0-.08-.72,5.47,5.47,0,0,1-.08-.72,2.92,2.92,0,0,1,.18-1.31c.14-.29.53-.42,1.16-.41a3.71,3.71,0,0,1,.48-.1l.49-.06a12.67,12.67,0,0,1,2.61.15,13.12,13.12,0,0,0,2.66.15l.55,0,.55-.08.59,0,.79-.09a2.79,2.79,0,0,0,.73-.18.71.71,0,0,0,.42-.34,3.86,3.86,0,0,0,.23-1,5.75,5.75,0,0,0,0-1.1,5,5,0,0,1,0-1c0-.31,0-.63,0-.94s0-.41-.06-.64a1.91,1.91,0,0,0-.18-.6,1.12,1.12,0,0,0-.38-.43,1,1,0,0,0-.64-.16L19,83.19c-.29,0-.59,0-.89.08a8.49,8.49,0,0,0-.88.14l-.54.1-.23,0a4,4,0,0,1-1.61-.2c-.43-.16-.65-.6-.68-1.31,0-.45,0-.85-.09-1.21a2,2,0,0,1,.08-.9,1.14,1.14,0,0,1,.51-.6,2.93,2.93,0,0,1,1.26-.25,4,4,0,0,1,1.47.2,4.44,4.44,0,0,0,1.44.24h1.51l1.48,0,1,0c.5,0,1-.06,1.53-.11s1-.13,1.46-.21a1.36,1.36,0,0,0,.83-.32A8.47,8.47,0,0,0,27,77.16a10.9,10.9,0,0,0,0-1.64c0-.25,0-.52,0-.81m29.28,6.9c-.06-.19-.12-.39-.2-.6l-.21-.63c-.07-.21-.11-.36-.13-.45a9.52,9.52,0,0,1-.33-1.3,11.19,11.19,0,0,0-.33-1.27,4.12,4.12,0,0,0-.65-1.18,11.45,11.45,0,0,0-1-1.18,14.8,14.8,0,0,0-1.18-1.07c-.4-.33-.77-.61-1.09-.84a2.34,2.34,0,0,1-.32-.24,5.37,5.37,0,0,0-.45-.35c-.16-.12-.31-.22-.43-.32a.79.79,0,0,0-.3-.17,3.56,3.56,0,0,0-1.11-.31,6.86,6.86,0,0,1-1.1-.2l-.92-.3-.92-.3a5.63,5.63,0,0,0-.84-.09l-1.34-.08c-.49,0-.95,0-1.39,0h-.89a7.86,7.86,0,0,0-2.37.46,10.41,10.41,0,0,0-2.08,1,12.44,12.44,0,0,0-1.84,1.5c-.57.56-1.12,1.15-1.65,1.75l-.37.42-.55.66-.51.67a2.53,2.53,0,0,0-.29.45,17.26,17.26,0,0,0-1.07,3.74,18.58,18.58,0,0,0-.18,3.89,7.92,7.92,0,0,1,0,1.1,6.58,6.58,0,0,0,0,1.1q0,.12.09.6c.06.31.14.65.22,1s.16.71.24,1.05.16.56.21.69a7,7,0,0,0,1,2.09,14.85,14.85,0,0,0,1.65,2.13,16.36,16.36,0,0,0,2,1.82,7.69,7.69,0,0,0,2,1.12c.22.08.58.19,1.05.32s1,.27,1.52.39l1.49.31a5.4,5.4,0,0,0,1,.11L45.13,99a3.13,3.13,0,0,0,.48-.05,2.75,2.75,0,0,0,.49-.11l.71-.22c.28-.09.56-.18.85-.29s.57-.2.86-.32l.73-.29a4.05,4.05,0,0,0,.85-.5c.37-.27.75-.56,1.14-.88s.76-.63,1.11-.94a4.35,4.35,0,0,0,.7-.74l.77-1.06c.29-.41.58-.83.87-1.29A13.74,13.74,0,0,0,55.44,91a5,5,0,0,0,.43-1.22,24.77,24.77,0,0,0,.49-3.88c.06-1.36.07-2.67,0-3.92a2,2,0,0,0-.08-.35m-7.77,2c0,.48,0,1,0,1.51s0,1,0,1.45a4.85,4.85,0,0,1,0,.76,3.66,3.66,0,0,1-.28.52,3.25,3.25,0,0,0-.28.52c-.18.48-.33.84-.44,1.09a2.06,2.06,0,0,1-.38.61,1.92,1.92,0,0,1-.58.41l-1.07.55-.94.45a2.52,2.52,0,0,1-1,.24A4.75,4.75,0,0,1,41,91.21a5.82,5.82,0,0,1-1.87-1.62,7.42,7.42,0,0,1-1.18-2.29,9.93,9.93,0,0,1-.46-2.55,8.6,8.6,0,0,1,.14-2.1,6.56,6.56,0,0,1,.66-1.88,6.34,6.34,0,0,1,1.19-1.55,6.1,6.1,0,0,1,1.79-1.14c.24-.1.52-.2.84-.31A3.55,3.55,0,0,1,43,77.6a4.34,4.34,0,0,1,1.32.16,5.52,5.52,0,0,1,1.27.54,5.41,5.41,0,0,1,1.08.84,3.68,3.68,0,0,1,.76,1.1c.19.39.38.79.54,1.19a11.66,11.66,0,0,0,.57,1.19q0,.3,0,1M82.78,94.06a11.38,11.38,0,0,0-.65-1.15q-.37-.59-.78-1.14c-.26-.38-.47-.68-.61-.92l-1.15-1.68a10.07,10.07,0,0,0-1.35-1.55,1.57,1.57,0,0,1-.55-1.12.47.47,0,0,1,.18-.44c.2-.12.4-.23.61-.33a3.88,3.88,0,0,0,.57-.33,7.44,7.44,0,0,0,2.4-2.61,6.77,6.77,0,0,0,.67-3.48,13,13,0,0,0-.66-3.58,6.24,6.24,0,0,0-2-2.94,9,9,0,0,0-1.07-.71A10.93,10.93,0,0,0,77,71.43,10.15,10.15,0,0,0,75.63,71a4.57,4.57,0,0,0-1.29-.15,3.8,3.8,0,0,0-.78.12,4.68,4.68,0,0,1-.79.11A7.22,7.22,0,0,1,71.45,71a7.16,7.16,0,0,0-1.32-.07,5.47,5.47,0,0,0-1,.17,4.53,4.53,0,0,1-1,.17,14.46,14.46,0,0,1-2,0c-.66-.06-1.32-.09-2-.11l-.88,0-1,0-.92,0a6.21,6.21,0,0,1-.79,0l-.29-.07a1.17,1.17,0,0,0-.29,0,.72.72,0,0,0-.72.44,2.27,2.27,0,0,0-.13.87,3.58,3.58,0,0,0,.1.69,3.58,3.58,0,0,1,.1.69,4.1,4.1,0,0,1-.11,1,2.37,2.37,0,0,0,0,1c.06.37.14.78.24,1.2a7.69,7.69,0,0,1,.17,1.2,2.25,2.25,0,0,1-.09.73,2,2,0,0,0-.08.73,3.76,3.76,0,0,0,.15.93,3.43,3.43,0,0,1,.16.94,4.86,4.86,0,0,1,0,.76c0,.26,0,.51-.05.76a5.08,5.08,0,0,0,.05.87c0,.29,0,.59.06.91.05,1.14.06,2.26,0,3.36s0,2.23,0,3.37c0,.24,0,.47.08.69a3.5,3.5,0,0,1,.08.65c0,.41,0,.81,0,1.21s0,.81,0,1.21a4.82,4.82,0,0,0,.25,1.51,1.77,1.77,0,0,0,.61.85,2.17,2.17,0,0,0,1,.36,9.23,9.23,0,0,0,1.53,0c.36,0,.68,0,1,0a6.11,6.11,0,0,0,.79-.07,6.87,6.87,0,0,0,.75-.19,3.87,3.87,0,0,0,.88-.4l.44-.26a.85.85,0,0,0,.28-.25,1,1,0,0,0,.14-.32,2.59,2.59,0,0,0,0-.53,7.49,7.49,0,0,0-.13-1,5.89,5.89,0,0,1-.14-1c0-.2,0-.4,0-.62a4.3,4.3,0,0,0,0-.62,7.11,7.11,0,0,0-.24-1.59,8.66,8.66,0,0,1-.24-1.63,2.23,2.23,0,0,1,.13-1,.8.8,0,0,1,.48-.44,2.64,2.64,0,0,1,.8-.12l1.05,0a1.08,1.08,0,0,1,.47-.12,1,1,0,0,1,.59.16,1.5,1.5,0,0,1,.47.43,2.16,2.16,0,0,1,.25.66c0,.23.11.45.18.68a3,3,0,0,0,.31.55,3.27,3.27,0,0,1,.35.56s0,.13.09.25.09.25.14.38.1.25.15.36a1,1,0,0,1,.08.2c.33.43.63.87.91,1.29a13.76,13.76,0,0,1,.78,1.36c0,.09.11.23.19.4s.15.36.24.54a5.24,5.24,0,0,0,.28.53.66.66,0,0,0,.28.31,4,4,0,0,0,1.63.4,16.71,16.71,0,0,0,1.69,0l.87-.08c.32,0,.69,0,1.13-.06a7,7,0,0,0,1.24-.2,2.5,2.5,0,0,0,1-.52A1.26,1.26,0,0,0,83.08,95a2.35,2.35,0,0,0-.3-.93M69.27,76.53a11.8,11.8,0,0,1,2.23.07,5.33,5.33,0,0,1,2,.64,2.69,2.69,0,0,1,1.23,1.6,2.12,2.12,0,0,1,.09.5,3.45,3.45,0,0,1-.32,1.48,2,2,0,0,1-1,1.1c-.32,0-.63,0-.94.08s-.63.08-.94.14a6.89,6.89,0,0,0-1.53.47,4.29,4.29,0,0,1-1.57.37h-.23A.74.74,0,0,0,68,83a1.09,1.09,0,0,0-.36,0,.68.68,0,0,1-.38-.07.83.83,0,0,1-.41-.52,4.44,4.44,0,0,1-.2-.87c-.05-.31-.08-.62-.1-.9s0-.55,0-.71c0-.36,0-.71-.08-1.06s-.07-.71-.08-1.09a.88.88,0,0,1,.34-.62c.24-.23.4-.4.51-.49l2-.11m36.24,17.76a8.15,8.15,0,0,0-.15-1.17c-.09-.4-.16-.79-.22-1.17a3.68,3.68,0,0,1-.09-.82c0-.28,0-.55,0-.82,0-.52,0-1,0-1.57s0-1,0-1.56a4.89,4.89,0,0,0-.2-1.14c-.12-.4-.22-.77-.3-1.13a13.07,13.07,0,0,0,.22-1.89c0-.61,0-1.24,0-1.89,0-.27,0-.53-.06-.8s-.06-.53-.08-.77a3.15,3.15,0,0,1,.06-.61,2.14,2.14,0,0,0,.06-.61,7.09,7.09,0,0,0-.21-1.4,7.19,7.19,0,0,1-.21-1.31,10.46,10.46,0,0,1,.14-2.16,9.81,9.81,0,0,0,.14-2.16,2.31,2.31,0,0,0-.34-1.28,1.64,1.64,0,0,0-.76-.57,4.14,4.14,0,0,0-1.06-.22,6.54,6.54,0,0,1-1.2-.24c-.47.09-.92.15-1.36.19s-.89.07-1.36.09a1.42,1.42,0,0,0-1.15.61A1.9,1.9,0,0,0,97,71.17c0,1,.13,2,.25,3s.2,2,.25,3c0,.49,0,1,0,1.45s0,1,0,1.44a13.89,13.89,0,0,0,.13,1.46,14.14,14.14,0,0,1,.13,1.46,10.94,10.94,0,0,1,0,1.52,12.73,12.73,0,0,0,0,1.52,1.59,1.59,0,0,0,.12.49,1.25,1.25,0,0,1,.12.5,5,5,0,0,1-.09,1.28,5.61,5.61,0,0,0-.09,1.29A22.08,22.08,0,0,0,98,92.13c.11.8.21,1.62.29,2.44,0,.05,0,.18,0,.41s0,.29.11.29a1.48,1.48,0,0,0,.66.73,2.91,2.91,0,0,0,1,.31,6.52,6.52,0,0,0,1.08.06l1-.05a7.82,7.82,0,0,0,2.06-.32,2.23,2.23,0,0,0,1.29-1.51s0-.09,0-.2m22.6.74c.25,0,.51-.06.79-.09l.79,0,.61,0c.35-.18.72-.35,1.09-.52a1.33,1.33,0,0,0,.73-.91,2,2,0,0,0,0-.61c0-.35,0-.73,0-1.14s0-.83-.07-1.21,0-.64,0-.77c0-.47,0-.94,0-1.4s0-.92,0-1.39a4.16,4.16,0,0,0-.13-.91,8.52,8.52,0,0,0-.26-.9c0-.22.07-.48.12-.76a4.15,4.15,0,0,0,.05-.76c0-.38-.06-.75-.08-1.12l-.06-1.13a10.15,10.15,0,0,1,0-1.45,10.09,10.09,0,0,0,0-1.45,5.59,5.59,0,0,0-.12-1,6.76,6.76,0,0,1-.12-1,2.25,2.25,0,0,1,.09-.73,2.22,2.22,0,0,0,.09-.73l-.22-5a2.67,2.67,0,0,0-.51-1.53,2.58,2.58,0,0,0-1.48-.74,1.75,1.75,0,0,1-.53.25l-.7.16-.74.12-.6.06a12.47,12.47,0,0,0-1.73.27,1.66,1.66,0,0,0-.9.53,1.84,1.84,0,0,0-.33,1,16.65,16.65,0,0,0,0,1.72c0,1.1.14,2.18.28,3.27s.28,2.17.45,3.26c.12.92.26,1.83.42,2.74a23.29,23.29,0,0,1,.28,2.75l-.37,0v-.07c-.1-.29-.21-.6-.32-.94a7.43,7.43,0,0,0-.37-.91,18,18,0,0,0-1.11-2c-.42-.67-.83-1.32-1.25-2a5.29,5.29,0,0,0-.43-.61,3,3,0,0,1-.4-.63,23,23,0,0,0-1.32-2.44c-.47-.79-1-1.56-1.54-2.33a2.82,2.82,0,0,1-.37-.63l-.3-.7c-.1-.23-.21-.45-.33-.67a2.4,2.4,0,0,0-.46-.59,2,2,0,0,0-.87-.39,9,9,0,0,0-1.22-.17c-.42,0-.84-.06-1.25-.07s-.71,0-.94,0l-1.12.07a9.92,9.92,0,0,0-1.52.21,4.44,4.44,0,0,0-1.33.5.94.94,0,0,0-.53.9.85.85,0,0,0,.1.4l.17.36a2.84,2.84,0,0,1,.18.72,10.42,10.42,0,0,1,.1,1l0,1.08c0,.36,0,.64,0,.84a3.6,3.6,0,0,0,.07.55c0,.19.08.37.11.55.08.83.12,1.66.13,2.51s0,1.67.06,2.5a6.87,6.87,0,0,0,.2,1.51,8.22,8.22,0,0,1,.19,1.47,17.5,17.5,0,0,1,0,2,19.65,19.65,0,0,0,0,2c0,.78.08,1.56.14,2.35s.12,1.56.2,2.35c0,.13,0,.32,0,.57s.05.49.09.75a5.71,5.71,0,0,0,.13.74,1.22,1.22,0,0,0,.22.51,1.35,1.35,0,0,0,.7.44,5.21,5.21,0,0,0,1,.21,7.25,7.25,0,0,0,1,0l.86,0a1.74,1.74,0,0,1,1-.31,6.43,6.43,0,0,0,1.13-.15,1.67,1.67,0,0,0,.88-.54,2.15,2.15,0,0,0,.32-1.53c0-.74-.1-1.48-.2-2.21s-.2-1.48-.29-2.22a23,23,0,0,1-.23-2.76c0-.94,0-1.87-.08-2.81a4.53,4.53,0,0,0-.2-1.11,3.63,3.63,0,0,1-.2-1.1s0-.13,0-.27a2.48,2.48,0,0,1,0-.47,1.43,1.43,0,0,1,.1-.43.26.26,0,0,1,.21-.19V80c.27.62.55,1.22.84,1.82s.59,1.17.93,1.74a4.47,4.47,0,0,0,.4.6c.14.19.27.38.4.58.27.48.52,1,.77,1.48a14.17,14.17,0,0,0,.81,1.48l1,1.55a5.18,5.18,0,0,1,.72,1.71,14.12,14.12,0,0,1,1.23,1.61,8.7,8.7,0,0,0,1,1.35,3.91,3.91,0,0,0,1.33.92,4.53,4.53,0,0,0,2,.28,2,2,0,0,1,.53-.12M158.62,82.3a9.73,9.73,0,0,0,.1-1.87c0-.94-.12-1.87-.24-2.8s-.25-1.86-.4-2.79c-.42-.7-.8-1.31-1.15-1.82a13.19,13.19,0,0,0-1.07-1.4,14.06,14.06,0,0,0-1.21-1.24c-.45-.41-1-.87-1.55-1.38-.52-.18-1-.37-1.52-.56s-1-.36-1.49-.52a11.46,11.46,0,0,0-1.51-.37,7,7,0,0,0-1.61-.1,6.39,6.39,0,0,0-1.35.2,5.8,5.8,0,0,1-1.36.16h-.13q-2,0-4,0c-1.31,0-2.62-.06-3.93-.15a6.67,6.67,0,0,0-.9.72,2.19,2.19,0,0,0-.45.67,2.3,2.3,0,0,0-.17.82c0,.3,0,.67,0,1.12a16.33,16.33,0,0,0,.18,1.9c.09.61.15,1.24.19,1.89s0,1.25,0,1.87a13,13,0,0,0,0,1.87v.26c.11,1.35.2,2.69.29,4s.17,2.71.23,4c0,.58,0,1.17.05,1.77s0,1.18,0,1.76a1.71,1.71,0,0,0,.09.51,2.36,2.36,0,0,1,.09.52,2.71,2.71,0,0,1-.05.56,2.69,2.69,0,0,0,0,.56,1.69,1.69,0,0,0,.49,1.19,2.87,2.87,0,0,0,1.09.62,5.3,5.3,0,0,0,1.34.25c.47,0,.89,0,1.25,0a18.9,18.9,0,0,0,3.91-.57,2.93,2.93,0,0,1,1-.13,4.64,4.64,0,0,0,1-.06,15.24,15.24,0,0,0,1.91-.33,10.08,10.08,0,0,1,1.94-.27,4.32,4.32,0,0,0,1.08-.25c.47-.15,1-.34,1.48-.55s1-.44,1.42-.67a3.48,3.48,0,0,0,.91-.63l.64-.7c.28-.3.55-.62.82-1l.75-1a2.75,2.75,0,0,0,.43-.79c.2-.6.39-1.19.57-1.78s.37-1.18.59-1.77a11.9,11.9,0,0,1,.14-1.88m-14-8.29a11.7,11.7,0,0,1,2,.27,9.56,9.56,0,0,1,1.86.57,5.28,5.28,0,0,1,1.56.94,2.36,2.36,0,0,1,.56.9A8.36,8.36,0,0,1,151,78c.11.47.2.92.26,1.37s.1.8.12,1.07a11.94,11.94,0,0,1-.24,3.27A4.94,4.94,0,0,1,150,85.87a4.57,4.57,0,0,1-2.11,1.24,13.6,13.6,0,0,1-3.19.48,3,3,0,0,1-1.2-.2,1,1,0,0,1-.61-1v-.57l0-1.85c0-1.36,0-2.73,0-4.08s0-2.7-.07-4c0-.11,0-.23,0-.35s0-.24,0-.35v-.59a1.45,1.45,0,0,1,.12-.59,16.38,16.38,0,0,1,1.84,0m38,17.75a2.2,2.2,0,0,0,.4-1.33,6.66,6.66,0,0,0-.11-.91,6.51,6.51,0,0,1-.11-.9,2.65,2.65,0,0,1,.06-.7,2.55,2.55,0,0,0,.05-.69,1.41,1.41,0,0,0-.63-1.29,2.85,2.85,0,0,0-1.46-.27c-.38,0-.75,0-1.12.1l-1.12.13c-.83.08-1.65.14-2.46.19s-1.62.11-2.44.19c-.52.07-1,.16-1.54.28a7.87,7.87,0,0,1-1.48.21,1.18,1.18,0,0,1-.86-.22,1.36,1.36,0,0,1-.43-.6,3.06,3.06,0,0,1-.16-.85c0-.32,0-.62,0-.91s0-.67-.06-1a2,2,0,0,1,.06-.79,1,1,0,0,1,.4-.52,1.84,1.84,0,0,1,.93-.23,3.05,3.05,0,0,1,.5-.15,3.8,3.8,0,0,1,.5-.06,4.84,4.84,0,0,1,1.61.22,4.28,4.28,0,0,0,1.34.22c.72,0,1.43-.08,2.15-.15s1.43-.13,2.15-.16a1.65,1.65,0,0,0,1.22-.45,2.17,2.17,0,0,0,.52-1,5.79,5.79,0,0,0,.1-1.27c0-.46,0-.89,0-1.27a1.93,1.93,0,0,1,0-.25,2.08,2.08,0,0,0,0-.25,1.45,1.45,0,0,0-.57-1.27,2.44,2.44,0,0,0-1.42-.29,9.85,9.85,0,0,0-1.32.14c-.43.07-.87.14-1.32.17a11.85,11.85,0,0,1-1.45.05q-.71,0-1.44,0a7.15,7.15,0,0,0-1.46.22,6,6,0,0,1-1.46.23.85.85,0,0,1-.78-.3,2,2,0,0,1-.36-.8,6.1,6.1,0,0,1-.13-1,8.21,8.21,0,0,0-.06-.84.12.12,0,0,1-.05-.07c0-.07,0-.1.11-.1a1.65,1.65,0,0,1,1-.71,4.56,4.56,0,0,1,1.18-.2c.65,0,1.31,0,2,0s1.32,0,2,0a9.3,9.3,0,0,1,1.91.1,11,11,0,0,0,1.91.1,2.67,2.67,0,0,0,1.67-.57,1.92,1.92,0,0,0,.55-1.65c0-.13,0-.42-.08-.84s-.12-.87-.19-1.34a10.87,10.87,0,0,0-.28-1.26,1.42,1.42,0,0,0-.3-.67,2.4,2.4,0,0,0-.79-.23,5,5,0,0,0-.77,0l-.37,0a1.91,1.91,0,0,0-.33.06l-1.64.24-.44,0a.43.43,0,0,1-.2.06l-.1,0-.67-.08c-.23,0-.46,0-.68,0-1.55.07-3.09.16-4.63.3l-1.11.07-.24,0c-.58-.08-1.17-.15-1.76-.2a13.14,13.14,0,0,0-1.78,0l-.57,0-.58,0-.6.26a6,6,0,0,0-.67.33,1.92,1.92,0,0,0-.53.45.77.77,0,0,0-.21.56c0,.76.1,1.51.2,2.26s.17,1.5.2,2.27c0,.58,0,1.17,0,1.78s0,1.2,0,1.78A5.82,5.82,0,0,0,162,77a5.51,5.51,0,0,1,.08.71,12.57,12.57,0,0,1,0,1.74,12.46,12.46,0,0,0,0,1.73,1.65,1.65,0,0,0,.09.54,1.91,1.91,0,0,1,.08.54,6.84,6.84,0,0,1,.05,1,7.11,7.11,0,0,0,0,1,5.13,5.13,0,0,0,.13.66,4,4,0,0,1,.09.67,11.92,11.92,0,0,1-.13,2.38,13,13,0,0,0-.13,2.41,3.86,3.86,0,0,0,.82,2.42,2.68,2.68,0,0,0,2.36.84,10.21,10.21,0,0,0,1.4-.14c.49-.08,1-.17,1.4-.28a6.59,6.59,0,0,1,1.43-.16c.5,0,1,0,1.43,0a2.43,2.43,0,0,1,.91-.26c.44-.07.9-.12,1.39-.16s1-.07,1.45-.08l1.08,0a14.18,14.18,0,0,1,1.46,0,13.66,13.66,0,0,0,1.43,0l2.72-.12a1.39,1.39,0,0,0,1.17-.69m25.59-21.38a8,8,0,0,0-.78-2.12A5.63,5.63,0,0,0,206,66.57a6.48,6.48,0,0,0-2.21-1.13,10.94,10.94,0,0,0-1.2-.3c-.5-.1-1-.2-1.56-.29s-1.06-.16-1.56-.2a8.89,8.89,0,0,0-1.18-.05,8.69,8.69,0,0,0-1.39.18,8.73,8.73,0,0,1-1.39.19,8.6,8.6,0,0,1-1.43-.06,8.77,8.77,0,0,0-1.44-.06c-.58,0-1.15.06-1.71.11s-1.13.09-1.71.12a13.64,13.64,0,0,1-1.42,0,7.65,7.65,0,0,0-1.44.06,2,2,0,0,0-1,1.11,4,4,0,0,0-.22,1.54,11.73,11.73,0,0,0,.18,1.42,8.76,8.76,0,0,1,.18,1.42,10.39,10.39,0,0,1,0,1.12,8.1,8.1,0,0,0,0,1.11,1.41,1.41,0,0,0,.18.56,1.38,1.38,0,0,1,.18.6q.11,2.46.09,4.89c0,1.63,0,3.26.1,4.9a3.1,3.1,0,0,0,.1.67,3.73,3.73,0,0,1,.09.67c0,.84.06,1.7.05,2.57s0,1.72,0,2.57a1.78,1.78,0,0,0,.75,1.6,3.18,3.18,0,0,0,1.76.34q.81,0,1.62-.12c.53-.07,1.08-.11,1.64-.14l.79-.38a3.06,3.06,0,0,1,.83-.3,1.23,1.23,0,0,0,.27-.65,6.77,6.77,0,0,0,.11-.93c0-.33,0-.65,0-1s0-.56,0-.74c0-.6-.08-1.21-.15-1.81s-.12-1.21-.15-1.82a1,1,0,0,1,.45-1,2.82,2.82,0,0,1,1.15-.27,11.71,11.71,0,0,1,2.21.12,10.89,10.89,0,0,0,2.21.12,5.45,5.45,0,0,0,1.74-.38,5.38,5.38,0,0,1,1.76-.37c.22-.1.42-.21.6-.31l.52-.35a10.7,10.7,0,0,0,2.11-1.82A7.86,7.86,0,0,0,207.8,78a8.84,8.84,0,0,0,.64-2.4,15.85,15.85,0,0,0,.09-2.8,13.24,13.24,0,0,0-.3-2.42m-12.08.6c1,0,2.07.12,3.15.24a1.58,1.58,0,0,1,1.27.75,2.71,2.71,0,0,1,.48,1.39,4.49,4.49,0,0,1-.19,1.45,6.42,6.42,0,0,1-.53,1.37,1,1,0,0,1-.62.46,6.82,6.82,0,0,1-1,.25,7.91,7.91,0,0,1-1.08.11c-.33,0-.6,0-.8.07-.38.06-.77.14-1.15.24a6.91,6.91,0,0,1-1.16.17,1.43,1.43,0,0,1-1.2-.42,2,2,0,0,1-.42-1.23c0-.22,0-.57,0-1s0-1,0-1.46,0-1,0-1.41A4.53,4.53,0,0,1,193,71q1.6-.06,3.15,0m36.55,18.6a2.26,2.26,0,0,0,.39-1.34,5.27,5.27,0,0,0-.11-.9,6.47,6.47,0,0,1-.11-.91,3,3,0,0,1,.06-.69,2.66,2.66,0,0,0,0-.7,1.35,1.35,0,0,0-.63-1.28,2.71,2.71,0,0,0-1.46-.27,10.35,10.35,0,0,0-1.12.09l-1.12.14c-.83.07-1.65.14-2.45.18s-1.62.11-2.45.19c-.52.07-1,.17-1.54.29a7.89,7.89,0,0,1-1.47.21,1.26,1.26,0,0,1-.87-.22,1.34,1.34,0,0,1-.43-.61,2.68,2.68,0,0,1-.15-.84c0-.32,0-.62,0-.92s0-.66-.06-1a2.15,2.15,0,0,1,.07-.79,1,1,0,0,1,.4-.53,2,2,0,0,1,.93-.23,2.79,2.79,0,0,1,.5-.15,3.83,3.83,0,0,1,.51,0,4.77,4.77,0,0,1,1.6.21,4.39,4.39,0,0,0,1.34.23c.72,0,1.44-.09,2.15-.15s1.43-.13,2.15-.16a1.74,1.74,0,0,0,1.23-.46,2.11,2.11,0,0,0,.51-1,5.7,5.7,0,0,0,.1-1.26c0-.47,0-.89,0-1.28a1.85,1.85,0,0,1,0-.24,2.26,2.26,0,0,0,0-.26,1.42,1.42,0,0,0-.58-1.26,2.5,2.5,0,0,0-1.41-.3c-.45,0-.89.07-1.33.14s-.87.14-1.32.18a10,10,0,0,1-1.44,0c-.48,0-1,0-1.45,0a6.52,6.52,0,0,0-1.46.22,6.54,6.54,0,0,1-1.45.23.89.89,0,0,1-.79-.31,1.79,1.79,0,0,1-.35-.79,4.54,4.54,0,0,1-.13-1,8,8,0,0,0-.08-.85.09.09,0,0,1,0-.06.1.1,0,0,1,.09-.11,1.72,1.72,0,0,1,1-.7,5.15,5.15,0,0,1,1.18-.21c.66,0,1.31,0,2,0s1.31,0,2,0a10.85,10.85,0,0,1,1.9.1,10.11,10.11,0,0,0,1.91.1,2.65,2.65,0,0,0,1.67-.56,1.94,1.94,0,0,0,.56-1.66c0-.13,0-.41-.09-.83s-.12-.88-.2-1.34a11.68,11.68,0,0,0-.27-1.27c-.11-.38-.2-.6-.3-.66a2.43,2.43,0,0,0-.78-.24,5.19,5.19,0,0,0-.78,0l-.37,0a1.26,1.26,0,0,0-.33,0l-1.64.25-.43,0a.73.73,0,0,1-.21.07l-.09,0c-.23,0-.46-.06-.68-.08a3.86,3.86,0,0,0-.68,0c-1.54.06-3.09.16-4.63.29l-1.11.08-.24,0-1.75-.2a13.34,13.34,0,0,0-1.79,0c-.18,0-.37,0-.57,0l-.57,0-.61.26a6.77,6.77,0,0,0-.66.33,2.16,2.16,0,0,0-.54.45.78.78,0,0,0-.21.57c0,.75.1,1.51.2,2.26s.17,1.5.2,2.26c0,.58,0,1.18,0,1.78a15.29,15.29,0,0,0,0,1.79,4.18,4.18,0,0,0,.08.72,5.47,5.47,0,0,1,.08.72,14.44,14.44,0,0,1,0,1.74A14.22,14.22,0,0,0,212,79a2.36,2.36,0,0,0,.1.53,2.54,2.54,0,0,1,.09.54,8.7,8.7,0,0,1,0,1,6.9,6.9,0,0,0,.05,1c0,.22.08.45.13.67a3,3,0,0,1,.1.67,11.84,11.84,0,0,1-.14,2.37,13.1,13.1,0,0,0-.13,2.42,4.1,4.1,0,0,0,.81,2.42,2.73,2.73,0,0,0,2.36.84,12.09,12.09,0,0,0,1.41-.15c.49-.07,1-.17,1.41-.27a5.88,5.88,0,0,1,1.42-.17c.51,0,1,0,1.43,0a2.29,2.29,0,0,1,.92-.27c.43-.06.9-.11,1.38-.16s1-.07,1.45-.08.83,0,1.08,0a14.18,14.18,0,0,1,1.46,0,13.88,13.88,0,0,0,1.44,0l2.72-.12a1.44,1.44,0,0,0,1.17-.69m22.64-.11.79-.08.79-.06.61,0,1.09-.52a1.29,1.29,0,0,0,.73-.91,2,2,0,0,0,0-.6c0-.36,0-.74-.05-1.15s0-.82-.07-1.21-.05-.63-.05-.77c0-.47,0-.93,0-1.39s0-.93,0-1.4a4.84,4.84,0,0,0-.12-.9c-.08-.31-.17-.62-.27-.9s.08-.48.12-.77a4.1,4.1,0,0,0,.05-.75c0-.38-.06-.76-.08-1.13l-.06-1.12a10.29,10.29,0,0,1,0-1.46,10,10,0,0,0,0-1.44,6.81,6.81,0,0,0-.13-1,6.89,6.89,0,0,1-.12-1,2.19,2.19,0,0,1,.09-.72,2.25,2.25,0,0,0,.09-.73l-.22-5a2.74,2.74,0,0,0-.51-1.53,2.58,2.58,0,0,0-1.48-.74,1.75,1.75,0,0,1-.53.24,6.56,6.56,0,0,1-.7.16c-.24.05-.49.09-.74.12a5.73,5.73,0,0,1-.6.06,12.22,12.22,0,0,0-1.73.28,1.6,1.6,0,0,0-.9.53,1.81,1.81,0,0,0-.33,1c0,.42,0,1,0,1.71.05,1.1.14,2.19.28,3.27s.28,2.17.44,3.26c.13.92.28,1.83.43,2.75a21.18,21.18,0,0,1,.28,2.75h-.36v-.07c-.1-.28-.21-.6-.32-.94a9,9,0,0,0-.37-.91,17.33,17.33,0,0,0-1.11-2c-.42-.67-.84-1.31-1.25-2a6.06,6.06,0,0,0-.42-.6,3,3,0,0,1-.41-.64,24,24,0,0,0-1.32-2.44c-.48-.78-1-1.56-1.54-2.32a3.34,3.34,0,0,1-.37-.64c-.1-.23-.2-.46-.29-.69s-.22-.46-.34-.68a2.35,2.35,0,0,0-.46-.58,1.86,1.86,0,0,0-.86-.39,11.17,11.17,0,0,0-1.22-.18c-.43,0-.84-.06-1.25-.06h-1l-1.12.07a10.13,10.13,0,0,0-1.52.22,4.72,4.72,0,0,0-1.33.49,1,1,0,0,0-.53.9,1,1,0,0,0,.1.4c.06.14.12.25.17.36a3.09,3.09,0,0,1,.18.72,10.63,10.63,0,0,1,.1,1.06l0,1.08c0,.35,0,.63,0,.83a3.73,3.73,0,0,0,.07.56c.05.19.08.37.11.55.08.82.12,1.66.13,2.5s0,1.68.06,2.5a7.62,7.62,0,0,0,.2,1.52,7.3,7.3,0,0,1,.19,1.46,17.66,17.66,0,0,1,0,2.06c0,.67,0,1.35,0,2s.08,1.57.14,2.35.12,1.57.2,2.35c0,.14,0,.33,0,.57s0,.5.09.76a5.55,5.55,0,0,0,.13.73,1.22,1.22,0,0,0,.22.51,1.34,1.34,0,0,0,.7.45,6.32,6.32,0,0,0,1,.2,9.24,9.24,0,0,0,1.05.06l.85,0a1.67,1.67,0,0,1,1-.31,6.45,6.45,0,0,0,1.12-.15,1.78,1.78,0,0,0,.89-.55A2.26,2.26,0,0,0,244.2,88c0-.74-.11-1.47-.21-2.21s-.19-1.47-.29-2.21a23.16,23.16,0,0,1-.23-2.77c0-.93,0-1.86-.08-2.8a4,4,0,0,0-.2-1.11,3.69,3.69,0,0,1-.2-1.1s0-.13,0-.27a2.44,2.44,0,0,1,0-.47,1.43,1.43,0,0,1,.1-.43c0-.12.12-.19.21-.19v.07c.27.61.55,1.21.84,1.81a19.53,19.53,0,0,0,.93,1.75,4.47,4.47,0,0,0,.4.6c.14.19.28.37.4.57.27.48.52,1,.77,1.48a14.17,14.17,0,0,0,.81,1.48c.33.53.67,1,1,1.56a5,5,0,0,1,.72,1.7,13.35,13.35,0,0,1,1.23,1.62,10,10,0,0,0,1,1.35,4.06,4.06,0,0,0,1.33.92,4.68,4.68,0,0,0,2.05.28,1.92,1.92,0,0,1,.53-.13m30.51-12.73a9,9,0,0,0,.1-1.87c0-.94-.12-1.87-.23-2.79s-.26-1.86-.41-2.79c-.42-.71-.8-1.31-1.15-1.82a13.34,13.34,0,0,0-1.07-1.41,14,14,0,0,0-1.21-1.23c-.45-.41-1-.88-1.55-1.39-.52-.18-1-.36-1.52-.55s-1-.37-1.49-.52a11.51,11.51,0,0,0-1.51-.38,7.61,7.61,0,0,0-1.6-.1,7.09,7.09,0,0,0-1.36.2,5.76,5.76,0,0,1-1.36.17h-.13c-1.32,0-2.65,0-4,0s-2.62-.06-3.93-.14a5.38,5.38,0,0,0-.89.71,2.1,2.1,0,0,0-.46.68,2.29,2.29,0,0,0-.17.81c0,.31,0,.68,0,1.13a18.92,18.92,0,0,0,.18,1.89c.09.62.16,1.25.19,1.9a16.46,16.46,0,0,1,0,1.86,14.61,14.61,0,0,0,0,1.87v.27c.11,1.34.2,2.69.29,4s.17,2.7.23,4c0,.59,0,1.18.05,1.77s0,1.18,0,1.77a2.28,2.28,0,0,0,.09.51,2.27,2.27,0,0,1,.09.52,2.2,2.2,0,0,1-.05.56,2.59,2.59,0,0,0,0,.55,1.68,1.68,0,0,0,.49,1.19,3,3,0,0,0,1.09.63,5.3,5.3,0,0,0,1.34.25c.47,0,.89,0,1.25,0a18.25,18.25,0,0,0,3.91-.57,2.92,2.92,0,0,1,1-.12,4.61,4.61,0,0,0,1-.06,16.93,16.93,0,0,0,1.91-.34,12.09,12.09,0,0,1,1.94-.27,4.68,4.68,0,0,0,1.08-.24c.48-.16,1-.34,1.48-.55s1-.44,1.41-.67a3.4,3.4,0,0,0,.92-.63l.64-.7c.28-.31.56-.62.82-1s.52-.67.75-1a3,3,0,0,0,.44-.8c.19-.59.38-1.18.56-1.77s.37-1.19.6-1.78a10.81,10.81,0,0,1,.13-1.88m-14-8.29a13.14,13.14,0,0,1,2,.27,10.47,10.47,0,0,1,1.85.58,5.28,5.28,0,0,1,1.56.94,2.39,2.39,0,0,1,.56.89,8.71,8.71,0,0,1,.41,1.31c.11.47.2.93.26,1.37a9.61,9.61,0,0,1,.12,1.07,12,12,0,0,1-.24,3.28,4.84,4.84,0,0,1-1.12,2.16,4.66,4.66,0,0,1-2.1,1.23,12.79,12.79,0,0,1-3.2.48,2.67,2.67,0,0,1-1.2-.2,1,1,0,0,1-.6-1v-.09l0-.48-.05-1.84c0-1.37,0-2.73,0-4.09s0-2.7-.08-4c0-.12,0-.23,0-.35s0-.25,0-.36,0-.37,0-.58a1.46,1.46,0,0,1,.12-.6c.56,0,1.17,0,1.84,0m38,17.76a2.23,2.23,0,0,0,.4-1.34,6.51,6.51,0,0,0-.11-.9,6.5,6.5,0,0,1-.1-.91,2.61,2.61,0,0,1,.05-.69,2.63,2.63,0,0,0,.05-.7,1.42,1.42,0,0,0-.62-1.28,2.91,2.91,0,0,0-1.47-.28c-.38,0-.75,0-1.12.1l-1.13.14c-.82.08-1.63.14-2.44.18s-1.63.11-2.45.19c-.51.07-1,.17-1.54.29a7.89,7.89,0,0,1-1.47.21,1.24,1.24,0,0,1-.87-.22,1.27,1.27,0,0,1-.43-.61,3,3,0,0,1-.16-.84c0-.32,0-.62,0-.92s0-.66-.07-1a2.15,2.15,0,0,1,.07-.79,1,1,0,0,1,.4-.53,1.91,1.91,0,0,1,.93-.23,3.05,3.05,0,0,1,.5-.15l.5,0a5.06,5.06,0,0,1,1.61.21,4.39,4.39,0,0,0,1.34.23c.72,0,1.43-.09,2.15-.16s1.43-.12,2.15-.15a1.74,1.74,0,0,0,1.23-.46,2.16,2.16,0,0,0,.51-1,5.2,5.2,0,0,0,.09-1.26c0-.47,0-.89,0-1.28a2.09,2.09,0,0,1,0-.25,1,1,0,0,0,0-.25,1.44,1.44,0,0,0-.57-1.26,2.5,2.5,0,0,0-1.41-.3,9.84,9.84,0,0,0-1.33.15c-.43.07-.87.13-1.32.17a11.76,11.76,0,0,1-1.45,0c-.47,0-.95,0-1.44,0a7.15,7.15,0,0,0-1.46.22,6.54,6.54,0,0,1-1.45.23.86.86,0,0,1-.79-.31,1.92,1.92,0,0,1-.36-.79,6.25,6.25,0,0,1-.13-1,8.21,8.21,0,0,0-.06-.84s0,0,0-.07,0-.1.1-.11a1.71,1.71,0,0,1,1-.7,5.14,5.14,0,0,1,1.19-.21c.64,0,1.3,0,2,0s1.32,0,2,0a11,11,0,0,1,1.91.1A9.3,9.3,0,0,0,306,67a2.74,2.74,0,0,0,1.68-.56,2,2,0,0,0,.55-1.65q0-.21-.09-.84c-.05-.43-.12-.87-.19-1.34a11.57,11.57,0,0,0-.28-1.27c-.11-.37-.2-.6-.3-.66a2.41,2.41,0,0,0-.78-.23,4.16,4.16,0,0,0-.78,0l-.37,0a1.26,1.26,0,0,0-.33.05l-1.64.25-.44,0-.2.06-.1,0c-.23,0-.45-.06-.67-.08a5.17,5.17,0,0,0-.68,0c-1.55.06-3.09.16-4.63.29l-1.11.08-.23.05L293.66,61a13.15,13.15,0,0,0-1.78,0l-.57,0c-.2,0-.39,0-.57,0l-.61.26a5.08,5.08,0,0,0-.66.33,2.16,2.16,0,0,0-.54.45.77.77,0,0,0-.21.56c0,.76.1,1.52.2,2.27s.17,1.5.2,2.26c0,.58,0,1.18,0,1.79a17.61,17.61,0,0,0,0,1.78,4.18,4.18,0,0,0,.08.72,5.66,5.66,0,0,1,.08.72,12.64,12.64,0,0,1,0,1.74,11.08,11.08,0,0,0,0,1.73,1.7,1.7,0,0,0,.09.54,2.35,2.35,0,0,1,.09.53,8.61,8.61,0,0,1,0,1,7,7,0,0,0,0,1,5.28,5.28,0,0,0,.13.67,3.73,3.73,0,0,1,.09.67,12,12,0,0,1-.13,2.38,12.94,12.94,0,0,0-.13,2.41,3.89,3.89,0,0,0,.82,2.42,2.68,2.68,0,0,0,2.36.84A12.16,12.16,0,0,0,294,88c.49-.07,1-.17,1.41-.27a5.88,5.88,0,0,1,1.42-.16c.5,0,1,0,1.43,0a2.23,2.23,0,0,1,.91-.27c.44-.06.9-.12,1.4-.16s1-.07,1.44-.07l1.08,0a14.18,14.18,0,0,1,1.46,0A13.68,13.68,0,0,0,306,87l2.73-.12a1.38,1.38,0,0,0,1.16-.69m22.65-.11.79-.08c.28,0,.55,0,.79,0l.61,0,1.09-.52a1.3,1.3,0,0,0,.74-.91,4.35,4.35,0,0,0,0-.6c0-.36,0-.74-.05-1.14s-.05-.83-.08-1.21-.05-.64-.06-.78c0-.47,0-.93,0-1.39s0-.93,0-1.4a4.93,4.93,0,0,0-.14-.9,8.52,8.52,0,0,0-.26-.9c0-.23.08-.48.12-.76a4.26,4.26,0,0,0,.05-.76c0-.38-.06-.76-.08-1.13s0-.74-.06-1.12A10.11,10.11,0,0,1,336,71a10.12,10.12,0,0,0,0-1.45,5.47,5.47,0,0,0-.12-1,5.71,5.71,0,0,1-.12-1,2.25,2.25,0,0,1,.09-.73,2.29,2.29,0,0,0,.09-.73l-.22-5a2.67,2.67,0,0,0-.51-1.53,2.58,2.58,0,0,0-1.48-.74,1.89,1.89,0,0,1-.53.24,6.52,6.52,0,0,1-.7.17l-.74.11a5.48,5.48,0,0,1-.6.06,12.47,12.47,0,0,0-1.73.28,1.6,1.6,0,0,0-.9.53,1.81,1.81,0,0,0-.33,1c0,.42,0,1,0,1.71.05,1.1.14,2.19.28,3.27s.28,2.17.44,3.26c.13.92.27,1.84.43,2.75a25.38,25.38,0,0,1,.29,2.75h-.37V74.9L329,74a6.64,6.64,0,0,0-.36-.91,21,21,0,0,0-1.11-2l-1.25-2a6.26,6.26,0,0,0-.43-.6,2.68,2.68,0,0,1-.39-.64,27.26,27.26,0,0,0-1.32-2.44c-.49-.78-1-1.56-1.56-2.32a3.63,3.63,0,0,1-.36-.64l-.3-.69a7.13,7.13,0,0,0-.33-.68,2.18,2.18,0,0,0-.47-.58,1.77,1.77,0,0,0-.85-.39,11.17,11.17,0,0,0-1.22-.18c-.43,0-.85-.06-1.25-.06s-.72,0-.94,0L315.7,60a10.26,10.26,0,0,0-1.53.22,4.65,4.65,0,0,0-1.32.49,1,1,0,0,0-.43,1.3c.06.13.12.26.16.36a2.6,2.6,0,0,1,.19.72c.05.33.08.68.1,1.06l0,1.07c0,.36,0,.64,0,.85a2.67,2.67,0,0,0,.07.55c0,.19.08.37.11.55.08.83.12,1.66.12,2.5s0,1.68.06,2.51a9.45,9.45,0,0,0,.2,1.51,8,8,0,0,1,.21,1.47c0,.69,0,1.37,0,2a19.46,19.46,0,0,0,0,2c0,.79.08,1.57.13,2.35s.13,1.57.21,2.35c0,.14,0,.33,0,.57s0,.5.09.76a5.55,5.55,0,0,0,.13.73,1.16,1.16,0,0,0,.22.51,1.23,1.23,0,0,0,.7.44,5.21,5.21,0,0,0,1,.21,9.2,9.2,0,0,0,1,.06l.86,0a1.72,1.72,0,0,1,1-.31,6.43,6.43,0,0,0,1.13-.15,1.65,1.65,0,0,0,.88-.55,2.19,2.19,0,0,0,.32-1.52c0-.74-.09-1.48-.19-2.22s-.2-1.47-.31-2.21a23.31,23.31,0,0,1-.21-2.77c0-.93-.05-1.87-.1-2.81a4.09,4.09,0,0,0-.19-1.1,4,4,0,0,1-.2-1.1,1.72,1.72,0,0,1,0-.27,2.46,2.46,0,0,1,0-.47,1.62,1.62,0,0,1,.1-.42c.05-.13.12-.2.21-.2v.07c.28.61.55,1.22.84,1.81s.6,1.18.93,1.75a5.68,5.68,0,0,0,.4.6q.21.28.39.57c.27.48.53,1,.78,1.48a16.21,16.21,0,0,0,.8,1.48c.34.53.68,1,1,1.56a5.33,5.33,0,0,1,.71,1.7,12.13,12.13,0,0,1,1.23,1.61,8.25,8.25,0,0,0,1,1.36,4.06,4.06,0,0,0,1.32.92,4.86,4.86,0,0,0,2.05.28,1.92,1.92,0,0,1,.53-.13m20.92-22a9.29,9.29,0,0,1,2.1.15,9.89,9.89,0,0,0,2.1.14,8.16,8.16,0,0,0,.72-.84,1.51,1.51,0,0,0,.34-1l0-.67a3.29,3.29,0,0,0-.09-.67,2.67,2.67,0,0,0,0-.4c0-.13,0-.27,0-.4a6.14,6.14,0,0,0-.18-1.31,1.18,1.18,0,0,0-.45-.67,1.53,1.53,0,0,0-.82-.21c-.33,0-.75,0-1.24,0-.79,0-1.56.09-2.32.18s-1.53.15-2.32.18a8.72,8.72,0,0,1-1.6-.07,8.72,8.72,0,0,0-1.6-.07,10.32,10.32,0,0,0-1.06.11l-1.05.18a7.31,7.31,0,0,1-1.11,0l-1.4-.09c-.48,0-1-.07-1.42-.13l-1.14-.12c-.57.2-1,.39-1.4.55a2.23,2.23,0,0,0-.87.63,2,2,0,0,0-.41,1,10.12,10.12,0,0,0-.05,1.65l.07,1.59a1.85,1.85,0,0,0,.35,1.07,2.15,2.15,0,0,0,.82.64,3.45,3.45,0,0,0,1.08.3,8.32,8.32,0,0,0,1.11,0,3.69,3.69,0,0,0,.95-.16,7.14,7.14,0,0,0,.81-.31l.82-.32a3.28,3.28,0,0,1,1-.18c0,.28-.07.67-.12,1.19s-.09,1.07-.13,1.65-.07,1.11-.1,1.63a5.12,5.12,0,0,0,.05,1.14c.06.32.13.64.2,1a7.28,7.28,0,0,1,.13,1,4.39,4.39,0,0,1-.11,1.12,2.83,2.83,0,0,0,0,1.08c.06.4.13.82.2,1.27a9.85,9.85,0,0,1,.14,1.27,4.36,4.36,0,0,1-.1,1.12,4.36,4.36,0,0,0-.1,1.12,6,6,0,0,0,.08.79q.07.4.12.78c0,.38,0,.76,0,1.13s0,.73,0,1.09a2.38,2.38,0,0,0,.58,1.5,1.76,1.76,0,0,0,1.47.57,14.66,14.66,0,0,0,1.74-.18,14.64,14.64,0,0,1,1.74-.17v-.17a3,3,0,0,0,1.65-.92,2.63,2.63,0,0,0,.46-1.8,7.8,7.8,0,0,0-.13-1l-.21-1.06c-.08-.36-.14-.71-.18-1a4.81,4.81,0,0,1-.06-.88c0-.36.06-.72.1-1.1a8.15,8.15,0,0,0,0-1.1c0-.33,0-.88-.05-1.64s-.06-1.57-.11-2.41-.1-1.63-.17-2.39A7.51,7.51,0,0,0,352,68l.22-1.83-.38-1.61a4.05,4.05,0,0,1,1.63-.44M394,69.4a6.5,6.5,0,0,0,.26-1,9.44,9.44,0,0,0,.14-1c0-.35.06-.65.1-.89a3.77,3.77,0,0,0,0-.58,2.15,2.15,0,0,1,0-.57,1.88,1.88,0,0,1,.25-.62.63.63,0,0,1,.56-.32v-.07l.24.06a.78.78,0,0,0,0,.14.49.49,0,0,1,0,.15.22.22,0,0,1,0,.14,21.6,21.6,0,0,0-.1,2.4c0,.78,0,1.58,0,2.39l.07,8.48a13.06,13.06,0,0,1-.11,1.37,7.09,7.09,0,0,0-.08,1.37,3.29,3.29,0,0,0,.45,1.73,2,2,0,0,0,1,.81,4.3,4.3,0,0,0,1.49.21l1.75-.07c.35-.14.68-.29,1-.44a4,4,0,0,0,.77-.51,1.72,1.72,0,0,0,.48-.71,2.71,2.71,0,0,0,.15-1.1,10.81,10.81,0,0,0-.31-2,10.08,10.08,0,0,1-.32-2,3.2,3.2,0,0,1,.09-.81A2.86,2.86,0,0,0,402,75a4.82,4.82,0,0,0-.11-.91c-.05-.26-.11-.54-.15-.82s-.08-.57-.11-.87a5,5,0,0,1,.05-1.06c-.08-.17-.16-.38-.25-.63a3.46,3.46,0,0,1-.18-.63,1.34,1.34,0,0,0,.09-.58c0-.27,0-.55,0-.84s0-.62-.07-.9a5.51,5.51,0,0,1-.06-.68c0-.2,0-.4,0-.6s0-.45,0-.74.05-.65.07-1.07.06-.91.1-1.5a2.61,2.61,0,0,1-.09-.57c0-.2,0-.39,0-.57,0-.58,0-1.15,0-1.7s0-1.12,0-1.7c0-.15,0-.34-.05-.56a.85.85,0,0,0-.21-.51,1.74,1.74,0,0,0-1-.53,6.14,6.14,0,0,0-1.31-.07L397.3,57a2.92,2.92,0,0,1-1.15-.15,11.32,11.32,0,0,1-1.44.18l-1.44.08a3.74,3.74,0,0,0-1.45.37,2,2,0,0,0-1,1.12,2.51,2.51,0,0,0-.16.85,3.51,3.51,0,0,1-.14.85c-.17.68-.36,1.38-.58,2.11a7.08,7.08,0,0,0-.28,2.17q0,.27.06.57c0,.2.08.39.13.56a1.09,1.09,0,0,0-.48.55,2,2,0,0,0-.12.71c0,.26,0,.52,0,.77a6.09,6.09,0,0,1,0,.73,3.23,3.23,0,0,1-.17.56,4.25,4.25,0,0,0-.15.56,4.68,4.68,0,0,0-.05.84,7.62,7.62,0,0,1-.05.85,6.79,6.79,0,0,1-.15.92,8.26,8.26,0,0,0-.14.91c0,.11,0,.32-.06.61s-.06.59-.11.9a3.76,3.76,0,0,1-.23.82c-.1.23-.23.36-.39.37a4.59,4.59,0,0,1-.56-1.23,13.93,13.93,0,0,1-.33-1.38q-.14-.72-.21-1.44t-.21-1.35c-.18-.87-.37-1.7-.58-2.5a20.57,20.57,0,0,0-.85-2.46c0-.22,0-.47,0-.74a2,2,0,0,1,.07-.71c-.13-.35-.28-.71-.44-1.09a6,6,0,0,1-.37-1.13,4.93,4.93,0,0,1-.13-1.09,7.89,7.89,0,0,0-.1-1.09,7,7,0,0,0-.31-1,1.15,1.15,0,0,0-.68-.74,7.19,7.19,0,0,0-1.68-.3c-.7,0-1.45-.09-2.23-.11H376.9c-.74,0-1.33,0-1.79.05a1.93,1.93,0,0,0-.53.11,3.75,3.75,0,0,0-.6.24,2.18,2.18,0,0,0-.52.36.87.87,0,0,0-.29.45,8.93,8.93,0,0,0-.18,1.69c0,.61,0,1.18,0,1.72a7.22,7.22,0,0,1,0,.93c0,.3,0,.61,0,.92,0,.58.08,1.17.14,1.75s.14,1.16.22,1.74c.05.24.1.51.14.8a6.31,6.31,0,0,1,.09.8,3.8,3.8,0,0,1-.06,1,5,5,0,0,0-.06.94,10.49,10.49,0,0,0,.31,2,9,9,0,0,1,.31,2,5.51,5.51,0,0,1,0,.91c0,.29-.05.59-.06.91,0,.94,0,1.89.07,2.84s.1,1.9.14,2.84c0,0,0,.14,0,.27a.52.52,0,0,0,.05.23,1,1,0,0,0,.65.62,6.31,6.31,0,0,0,1.18.33,9.53,9.53,0,0,0,1.27.15h1a8.46,8.46,0,0,0,1-.13,4.28,4.28,0,0,0,1-.33,2.42,2.42,0,0,0,.8-.59,1.3,1.3,0,0,0,.3-.94,2.45,2.45,0,0,0-.15-.77,6.08,6.08,0,0,1-.22-.76c-.24-1.32-.44-2.63-.61-3.93s-.28-2.64-.34-4c0-.45,0-.88,0-1.3s0-.83,0-1.26-.08-1.16-.15-1.73l-.21-1.69a6.1,6.1,0,0,0-.16-.9,5.83,5.83,0,0,1-.12-.91.59.59,0,0,1,.17-.4.46.46,0,0,1,.34-.22.26.26,0,0,1,.26.12c.06.09.12.17.17.26s.05.45.06.68,0,.44.06.66a2.86,2.86,0,0,0,.4,1,2.9,2.9,0,0,1,.39,1,6,6,0,0,1,.11,1,7.37,7.37,0,0,0,.11,1,3.34,3.34,0,0,1,.16.57l.3,1.09c.12.4.18.63.19.67s.16.36.26.56a4.59,4.59,0,0,1,.22.56,1.7,1.7,0,0,1,.09.5,3.55,3.55,0,0,0,.06.47,15.75,15.75,0,0,0,.64,2.47,20.5,20.5,0,0,1,.68,2.46l.38,1.8.19.87a2,2,0,0,0,.36.79,2.14,2.14,0,0,0,.87.72,3.65,3.65,0,0,0,1.11.31,7.62,7.62,0,0,0,1.16.05l1.14-.05a3.24,3.24,0,0,0,1.57-.41,2.29,2.29,0,0,0,.82-.88,3,3,0,0,0,.31-1.14c0-.41,0-.81,0-1.19s0-.73,0-1a.84.84,0,0,1,.26-.63,13.3,13.3,0,0,1,.36-2.69,14.83,14.83,0,0,0,.38-2.66,4.81,4.81,0,0,0,0-.52,3.35,3.35,0,0,1,.07-.53,9.18,9.18,0,0,1,.21-.92,2.92,2.92,0,0,0,.1-.91,2.77,2.77,0,0,0,.39-.79m32.23,11.73a2.19,2.19,0,0,0,.39-1.33,6.5,6.5,0,0,0-.1-.91,6.51,6.51,0,0,1-.11-.9,2.65,2.65,0,0,1,.06-.7,3,3,0,0,0,.05-.69,1.41,1.41,0,0,0-.63-1.29,2.75,2.75,0,0,0-1.46-.27c-.38,0-.76,0-1.13.1l-1.11.13c-.84.08-1.65.14-2.46.19s-1.62.11-2.45.18c-.51.08-1,.17-1.54.29a7.77,7.77,0,0,1-1.47.21,1.17,1.17,0,0,1-.86-.22,1.47,1.47,0,0,1-.44-.6,3.07,3.07,0,0,1-.15-.85c0-.32,0-.62,0-.92s0-.66-.06-1a2.15,2.15,0,0,1,.07-.79,1,1,0,0,1,.39-.52,1.82,1.82,0,0,1,.94-.23,1.67,1.67,0,0,1,.5-.15,3.61,3.61,0,0,1,.5-.06,4.84,4.84,0,0,1,1.61.22,4.54,4.54,0,0,0,1.34.22c.71,0,1.43-.08,2.15-.15s1.43-.13,2.14-.16a1.66,1.66,0,0,0,1.24-.46,2.15,2.15,0,0,0,.51-1,5.13,5.13,0,0,0,.09-1.26c0-.46,0-.89,0-1.27a1.93,1.93,0,0,1,0-.25v-.26a1.44,1.44,0,0,0-.58-1.26,2.41,2.41,0,0,0-1.41-.29,9.68,9.68,0,0,0-1.32.14c-.43.07-.88.13-1.32.17a10.15,10.15,0,0,1-1.45,0c-.47,0-.95,0-1.45,0a7.16,7.16,0,0,0-1.45.22,6.54,6.54,0,0,1-1.46.23.89.89,0,0,1-.79-.3,2.16,2.16,0,0,1-.35-.8,5.15,5.15,0,0,1-.13-1,8.3,8.3,0,0,0-.07-.85.07.07,0,0,1,0-.06c0-.07,0-.1.09-.11a1.67,1.67,0,0,1,1-.7,4.7,4.7,0,0,1,1.19-.2c.65,0,1.31,0,2,0s1.32,0,2,0a9.93,9.93,0,0,1,1.9.09,9.4,9.4,0,0,0,1.92.1,2.63,2.63,0,0,0,1.67-.56,1.94,1.94,0,0,0,.55-1.65,7.47,7.47,0,0,0-.09-.84c0-.43-.11-.87-.19-1.34s-.17-.89-.27-1.27a1.54,1.54,0,0,0-.3-.66,2.4,2.4,0,0,0-.79-.23,4.06,4.06,0,0,0-.77,0l-.37,0a1.35,1.35,0,0,0-.34.06l-1.64.24-.43,0a.68.68,0,0,1-.2.06l-.1,0c-.22,0-.45-.06-.68-.08a5,5,0,0,0-.67,0c-1.55.07-3.09.16-4.64.3L412,56l-.24,0-1.76-.2a15,15,0,0,0-1.78,0l-.57,0-.58,0-.61.26a5.13,5.13,0,0,0-.66.34,2.07,2.07,0,0,0-.53.44.77.77,0,0,0-.21.57,21.31,21.31,0,0,0,.2,2.26c.09.75.16,1.5.19,2.26a17.61,17.61,0,0,1,0,1.78c0,.62,0,1.21,0,1.79a5.47,5.47,0,0,0,.08.72,3.53,3.53,0,0,1,.08.72,11.18,11.18,0,0,1,0,1.74,12.46,12.46,0,0,0,0,1.73,2.54,2.54,0,0,0,.09.54,1.9,1.9,0,0,1,.09.53,7,7,0,0,1,.05,1,8.61,8.61,0,0,0,0,1c0,.23.08.45.13.67a3,3,0,0,1,.1.67,12,12,0,0,1-.13,2.38,11.47,11.47,0,0,0-.13,2.41,3.92,3.92,0,0,0,.81,2.42,2.69,2.69,0,0,0,2.36.84,12,12,0,0,0,1.41-.14c.49-.08,1-.17,1.4-.28a5.94,5.94,0,0,1,1.42-.16q.76,0,1.44,0a2.6,2.6,0,0,1,.91-.27c.43-.06.9-.11,1.39-.15a14.21,14.21,0,0,1,1.44-.08l1.08,0a10.29,10.29,0,0,1,1.47,0,13.66,13.66,0,0,0,1.43,0l2.72-.12a1.4,1.4,0,0,0,1.17-.69m26.4-11.66a9.78,9.78,0,0,0,.1-1.87c0-.94-.12-1.88-.24-2.8s-.25-1.86-.4-2.79c-.42-.7-.8-1.31-1.15-1.82a13.19,13.19,0,0,0-1.07-1.4,14.06,14.06,0,0,0-1.21-1.24c-.45-.41-1-.87-1.55-1.38-.52-.18-1-.37-1.52-.56s-1-.37-1.49-.53a11.42,11.42,0,0,0-1.51-.36,6.93,6.93,0,0,0-3,.09,5.34,5.34,0,0,1-1.36.17h-.13q-2,0-4,0c-1.31,0-2.62-.06-3.93-.14a6.72,6.72,0,0,0-.9.71,2.36,2.36,0,0,0-.45.68,2.29,2.29,0,0,0-.17.81c0,.31,0,.68,0,1.13a16.75,16.75,0,0,0,.18,1.9c.09.61.15,1.24.19,1.88s0,1.26,0,1.87a13,13,0,0,0,0,1.87V66c.1,1.34.2,2.69.29,4s.17,2.7.23,4c0,.58,0,1.17.05,1.76s0,1.18,0,1.77a2.17,2.17,0,0,0,.08.51,1.84,1.84,0,0,1,.1.52,2.56,2.56,0,0,1-.05.55,2.83,2.83,0,0,0,0,.57,1.63,1.63,0,0,0,.49,1.18,3,3,0,0,0,1.09.63,4.89,4.89,0,0,0,1.34.24c.47,0,.89,0,1.25,0a18.9,18.9,0,0,0,3.91-.57,2.7,2.7,0,0,1,1-.13,4.64,4.64,0,0,0,1-.06,17.31,17.31,0,0,0,1.91-.33,10.08,10.08,0,0,1,1.94-.27,4.32,4.32,0,0,0,1.08-.25c.47-.16,1-.34,1.48-.56s1-.43,1.42-.66a3.48,3.48,0,0,0,.91-.63l.64-.7c.28-.31.55-.63.82-1s.51-.67.74-1a2.51,2.51,0,0,0,.44-.8q.3-.89.57-1.77c.17-.59.37-1.19.59-1.78a11.69,11.69,0,0,1,.14-1.87m-14-8.3a12.84,12.84,0,0,1,2,.27,11.46,11.46,0,0,1,1.86.57A5.89,5.89,0,0,1,444,63a2.49,2.49,0,0,1,.56.91,8,8,0,0,1,.41,1.31c.11.46.2.92.26,1.36s.1.81.12,1.07a11.86,11.86,0,0,1-.25,3.27A4.73,4.73,0,0,1,443.94,73a4.56,4.56,0,0,1-2.1,1.24,13.14,13.14,0,0,1-3.19.47,2.88,2.88,0,0,1-1.21-.2,1,1,0,0,1-.6-1V73l0-1.85c0-1.37,0-2.73-.05-4.08s0-2.71-.07-4.05l0-.35c0-.13,0-.24,0-.36s0-.37,0-.59a1.48,1.48,0,0,1,.12-.59c.56,0,1.17,0,1.84,0m25.16,17.48a6.94,6.94,0,0,0-.15-1.17c-.09-.4-.16-.79-.22-1.17a3.68,3.68,0,0,1-.09-.82c0-.28,0-.55,0-.82,0-.52,0-1,0-1.57s0-1,0-1.56a4.42,4.42,0,0,0-.2-1.14c-.12-.4-.22-.77-.3-1.13a11.8,11.8,0,0,0,.22-1.89c0-.61,0-1.24,0-1.89a7,7,0,0,0-.07-.8c0-.27-.05-.53-.06-.77a2.14,2.14,0,0,1,.06-.61,2.51,2.51,0,0,0,.05-.61,7.41,7.41,0,0,0-.21-1.41,6.84,6.84,0,0,1-.21-1.3,10.51,10.51,0,0,1,.14-2.16,9.24,9.24,0,0,0,.14-2.16,2.31,2.31,0,0,0-.34-1.28,1.61,1.61,0,0,0-.77-.57,4.29,4.29,0,0,0-1.05-.23,6.12,6.12,0,0,1-1.21-.23,13.27,13.27,0,0,1-1.35.19c-.43,0-.89.07-1.36.09a1.45,1.45,0,0,0-1.15.61,2,2,0,0,0-.39,1.28c.05,1,.14,2,.26,3s.2,2,.25,3.05c0,.5,0,1,0,1.45s0,1,0,1.44a14.09,14.09,0,0,0,.13,1.47c.06.47.11,1,.13,1.45A10.94,10.94,0,0,1,456,69a12.73,12.73,0,0,0,0,1.52,1.59,1.59,0,0,0,.12.49,1.25,1.25,0,0,1,.12.5,5.61,5.61,0,0,1-.09,1.29A5,5,0,0,0,456,74a24.5,24.5,0,0,0,.22,2.45c.12.8.21,1.62.29,2.44,0,0,0,.18,0,.4s.05.31.11.3a1.48,1.48,0,0,0,.66.73,3,3,0,0,0,1,.32,6.56,6.56,0,0,0,1.08,0l1,0a7.82,7.82,0,0,0,2.06-.32,2.22,2.22,0,0,0,1.3-1.51.64.64,0,0,0,0-.2m23.48.46c.3,0,.62-.08,1-.11s.67,0,1-.09l.62-.07c.17-.11.39-.24.64-.37a6.84,6.84,0,0,0,.72-.47,2.54,2.54,0,0,0,.56-.58,1.13,1.13,0,0,0,.21-.72,3.3,3.3,0,0,0-.3-1c-.19-.45-.41-.92-.66-1.4s-.51-.94-.76-1.37-.42-.74-.54-.94a3,3,0,0,1-.3-.67c-.08-.26-.15-.52-.22-.78s-.13-.54-.2-.8a4.94,4.94,0,0,0-.25-.74,6.08,6.08,0,0,0-.53-.8,2.44,2.44,0,0,1-.45-.8c-.08-.25-.16-.48-.22-.72s-.14-.47-.22-.71a8,8,0,0,0-.43-1c-.2-.41-.44-.85-.7-1.31s-.5-.9-.74-1.32-.45-.75-.62-1a18.29,18.29,0,0,0-.88-3.2c-.38-1-.73-2-1-3.09A2.52,2.52,0,0,0,482,53.8a5.47,5.47,0,0,0-1.47-.8,8.08,8.08,0,0,0-1.68-.41,8.36,8.36,0,0,0-1.51-.09,5.59,5.59,0,0,0-.85.12c-.3.07-.71.15-1.22.24a2.51,2.51,0,0,0-1.17.46,3.12,3.12,0,0,0-.79.87,4.13,4.13,0,0,0-.46,1.13q-.13.61-.21,1.23a10.11,10.11,0,0,0-.75,1.51,6.46,6.46,0,0,0-.39,1.63,2.26,2.26,0,0,0-.41.73,6.09,6.09,0,0,0-.25.83c-.06.28-.11.57-.15.86a6.13,6.13,0,0,1-.13.82,3.59,3.59,0,0,1-.43,1,4.24,4.24,0,0,0-.46,1,2.66,2.66,0,0,0-.09.91,2.08,2.08,0,0,1-.13.85c-.23.57-.44,1.13-.65,1.7l-.65,1.69a6.77,6.77,0,0,0-.4,1.58c-.09.58-.18,1.12-.27,1.61a2.63,2.63,0,0,0-.07.49,1.65,1.65,0,0,1-.06.46,8.43,8.43,0,0,1-.44,1.08c-.17.35-.34.72-.51,1.08a8.23,8.23,0,0,0-.4,1.11,3.55,3.55,0,0,0-.14,1.17,1.62,1.62,0,0,0,.31,1,1.87,1.87,0,0,0,.72.55,3.39,3.39,0,0,0,.95.23c.35,0,.68,0,1,0a3.05,3.05,0,0,0,.57-.09,2.47,2.47,0,0,1,.6-.08,6.9,6.9,0,0,1,.91,0h.92a2.82,2.82,0,0,0,1.37-.35,2,2,0,0,0,.7-.75,3.52,3.52,0,0,0,.29-1,7.24,7.24,0,0,1,.22-1,3.08,3.08,0,0,1,.45-.93,2,2,0,0,1,1-.65,6,6,0,0,1,1.27-.19q1-.08,2-.12l2-.07,1.12,0a.86.86,0,0,1,.23-.13.66.66,0,0,1,.27-.06.14.14,0,0,1,.17.16h.17a8.41,8.41,0,0,0,.24,1.64,3.84,3.84,0,0,0,.62,1.32A2.64,2.64,0,0,0,485,79a3.45,3.45,0,0,0,1.64.27,5.38,5.38,0,0,1,.59-.11m-9-18.1a.45.45,0,0,1,.19.21l.59,2.57a2.63,2.63,0,0,0,.32.79,4.09,4.09,0,0,1,.36.83l.41,1.49a8.66,8.66,0,0,0,.55,1.43.75.75,0,0,1,.16.24.66.66,0,0,1,.1.29v0s0,0,0,0a1.37,1.37,0,0,1-.56.34,5.66,5.66,0,0,1-.79.22,6.79,6.79,0,0,1-.84.12l-.67,0h-.49a2.53,2.53,0,0,1-.56-.06,1.29,1.29,0,0,1-.48-.2.5.5,0,0,1-.22-.41,5.49,5.49,0,0,1,.12-1.4c.11-.47.23-.93.37-1.38s.27-.92.41-1.38.23-.93.31-1.38.14-.88.21-1.29.17-.84.28-1.29a1.14,1.14,0,0,1,.26.14"/></svg>